<mxfile host="65bd71144e" scale="10" border="0">
    <diagram id="Jf5RHwIwj3P055EiEldz" name="第 1 页">
        <mxGraphModel dx="2322" dy="1314" grid="1" gridSize="10" guides="1" tooltips="1" connect="1" arrows="1" fold="1" page="1" pageScale="1" pageWidth="1169" pageHeight="1654" math="0" shadow="0">
            <root>
                <mxCell id="0"/>
                <mxCell id="1" parent="0"/>
                <mxCell id="276" value="" style="rounded=0;whiteSpace=wrap;html=1;strokeColor=#DAE8FC;fillColor=#DAE8FC;" vertex="1" parent="1">
                    <mxGeometry x="40" y="240" width="600" height="120" as="geometry"/>
                </mxCell>
                <mxCell id="275" value="" style="rounded=0;whiteSpace=wrap;html=1;strokeColor=#DAE8FC;fillColor=#DAE8FC;" vertex="1" parent="1">
                    <mxGeometry x="280" y="200" width="360" height="40" as="geometry"/>
                </mxCell>
                <mxCell id="274" value="" style="rounded=0;whiteSpace=wrap;html=1;strokeColor=#F8CECC;fillColor=#F8CECC;" vertex="1" parent="1">
                    <mxGeometry x="40" y="160" width="200" height="40" as="geometry"/>
                </mxCell>
                <mxCell id="273" value="" style="rounded=0;whiteSpace=wrap;html=1;strokeColor=#F8CECC;fillColor=#f8cecc;" vertex="1" parent="1">
                    <mxGeometry x="40" y="40" width="600" height="120" as="geometry"/>
                </mxCell>
                <mxCell id="257" value="" style="whiteSpace=wrap;html=1;aspect=fixed;" vertex="1" parent="1">
                    <mxGeometry x="240" y="160" width="40" height="40" as="geometry"/>
                </mxCell>
                <mxCell id="258" value="" style="whiteSpace=wrap;html=1;aspect=fixed;fillColor=#d5e8d4;strokeColor=#82b366;" vertex="1" parent="1">
                    <mxGeometry x="280" y="160" width="40" height="40" as="geometry"/>
                </mxCell>
                <mxCell id="259" value="" style="whiteSpace=wrap;html=1;aspect=fixed;" vertex="1" parent="1">
                    <mxGeometry x="320" y="160" width="40" height="40" as="geometry"/>
                </mxCell>
                <mxCell id="260" value="" style="whiteSpace=wrap;html=1;aspect=fixed;" vertex="1" parent="1">
                    <mxGeometry x="360" y="160" width="40" height="40" as="geometry"/>
                </mxCell>
                <mxCell id="261" value="" style="whiteSpace=wrap;html=1;aspect=fixed;" vertex="1" parent="1">
                    <mxGeometry x="400" y="160" width="40" height="40" as="geometry"/>
                </mxCell>
                <mxCell id="262" value="" style="whiteSpace=wrap;html=1;aspect=fixed;" vertex="1" parent="1">
                    <mxGeometry x="440" y="160" width="40" height="40" as="geometry"/>
                </mxCell>
                <mxCell id="263" value="" style="whiteSpace=wrap;html=1;aspect=fixed;" vertex="1" parent="1">
                    <mxGeometry x="480" y="160" width="40" height="40" as="geometry"/>
                </mxCell>
                <mxCell id="264" value="" style="whiteSpace=wrap;html=1;aspect=fixed;" vertex="1" parent="1">
                    <mxGeometry x="520" y="160" width="40" height="40" as="geometry"/>
                </mxCell>
                <mxCell id="265" value="" style="whiteSpace=wrap;html=1;aspect=fixed;" vertex="1" parent="1">
                    <mxGeometry x="560" y="160" width="40" height="40" as="geometry"/>
                </mxCell>
                <mxCell id="266" value="" style="whiteSpace=wrap;html=1;aspect=fixed;" vertex="1" parent="1">
                    <mxGeometry x="600" y="160" width="40" height="40" as="geometry"/>
                </mxCell>
                <mxCell id="267" value="" style="whiteSpace=wrap;html=1;aspect=fixed;" vertex="1" parent="1">
                    <mxGeometry x="120" y="200" width="40" height="40" as="geometry"/>
                </mxCell>
                <mxCell id="268" value="" style="whiteSpace=wrap;html=1;aspect=fixed;" vertex="1" parent="1">
                    <mxGeometry x="160" y="200" width="40" height="40" as="geometry"/>
                </mxCell>
                <mxCell id="277" value="" style="edgeStyle=none;html=1;" edge="1" parent="1" source="269" target="276">
                    <mxGeometry relative="1" as="geometry"/>
                </mxCell>
                <mxCell id="269" value="" style="whiteSpace=wrap;html=1;aspect=fixed;" vertex="1" parent="1">
                    <mxGeometry x="200" y="200" width="40" height="40" as="geometry"/>
                </mxCell>
                <mxCell id="270" value="" style="whiteSpace=wrap;html=1;aspect=fixed;" vertex="1" parent="1">
                    <mxGeometry x="40" y="200" width="40" height="40" as="geometry"/>
                </mxCell>
                <mxCell id="271" value="" style="whiteSpace=wrap;html=1;aspect=fixed;" vertex="1" parent="1">
                    <mxGeometry x="80" y="200" width="40" height="40" as="geometry"/>
                </mxCell>
                <mxCell id="272" value="" style="whiteSpace=wrap;html=1;aspect=fixed;" vertex="1" parent="1">
                    <mxGeometry x="120" y="200" width="40" height="40" as="geometry"/>
                </mxCell>
                <mxCell id="278" value="&lt;font face=&quot;Times New Roman&quot;&gt;now&lt;br&gt;2&lt;br&gt;&lt;/font&gt;" style="whiteSpace=wrap;html=1;aspect=fixed;" vertex="1" parent="1">
                    <mxGeometry x="240" y="200" width="40" height="40" as="geometry"/>
                </mxCell>
                <mxCell id="279" value="&lt;font face=&quot;宋体&quot; data-font-src=&quot;https://fonts.googleapis.com/css?family=%E5%AE%8B%E4%BD%93&quot; style=&quot;font-size: 22px&quot;&gt;二值化图像&lt;/font&gt;" style="text;html=1;strokeColor=none;fillColor=none;align=center;verticalAlign=middle;whiteSpace=wrap;rounded=0;" vertex="1" parent="1">
                    <mxGeometry x="40" y="10" width="120" height="30" as="geometry"/>
                </mxCell>
                <mxCell id="280" value="&lt;font face=&quot;宋体&quot; data-font-src=&quot;https://fonts.googleapis.com/css?family=%E5%AE%8B%E4%BD%93&quot; style=&quot;font-size: 22px&quot;&gt;已遍历区域&lt;/font&gt;" style="text;html=1;strokeColor=none;fillColor=none;align=center;verticalAlign=middle;whiteSpace=wrap;rounded=0;" vertex="1" parent="1">
                    <mxGeometry x="280" y="85" width="120" height="30" as="geometry"/>
                </mxCell>
                <mxCell id="281" value="&lt;font face=&quot;宋体&quot; data-font-src=&quot;https://fonts.googleapis.com/css?family=%E5%AE%8B%E4%BD%93&quot; style=&quot;font-size: 22px&quot;&gt;未遍历区域&lt;/font&gt;" style="text;html=1;strokeColor=none;fillColor=none;align=center;verticalAlign=middle;whiteSpace=wrap;rounded=0;" vertex="1" parent="1">
                    <mxGeometry x="277.5" y="270" width="125" height="30" as="geometry"/>
                </mxCell>
                <mxCell id="282" value="" style="whiteSpace=wrap;html=1;aspect=fixed;fillColor=#d5e8d4;strokeColor=#82b366;" vertex="1" parent="1">
                    <mxGeometry x="320" y="160" width="40" height="40" as="geometry"/>
                </mxCell>
                <mxCell id="283" value="&lt;font face=&quot;Times New Roman&quot;&gt;up&lt;br&gt;0&lt;/font&gt;" style="whiteSpace=wrap;html=1;aspect=fixed;fillColor=#d5e8d4;strokeColor=#82b366;" vertex="1" parent="1">
                    <mxGeometry x="240" y="160" width="40" height="40" as="geometry"/>
                </mxCell>
                <mxCell id="284" value="" style="whiteSpace=wrap;html=1;aspect=fixed;fillColor=#d5e8d4;strokeColor=#82b366;" vertex="1" parent="1">
                    <mxGeometry x="360" y="160" width="40" height="40" as="geometry"/>
                </mxCell>
                <mxCell id="285" value="" style="whiteSpace=wrap;html=1;aspect=fixed;fillColor=#d5e8d4;strokeColor=#82b366;" vertex="1" parent="1">
                    <mxGeometry x="400" y="160" width="40" height="40" as="geometry"/>
                </mxCell>
                <mxCell id="286" value="" style="whiteSpace=wrap;html=1;aspect=fixed;fillColor=#d5e8d4;strokeColor=#82b366;" vertex="1" parent="1">
                    <mxGeometry x="400" y="160" width="40" height="40" as="geometry"/>
                </mxCell>
                <mxCell id="287" value="" style="whiteSpace=wrap;html=1;aspect=fixed;fillColor=#d5e8d4;strokeColor=#82b366;" vertex="1" parent="1">
                    <mxGeometry x="360" y="160" width="40" height="40" as="geometry"/>
                </mxCell>
                <mxCell id="288" value="" style="whiteSpace=wrap;html=1;aspect=fixed;fillColor=#d5e8d4;strokeColor=#82b366;" vertex="1" parent="1">
                    <mxGeometry x="320" y="160" width="40" height="40" as="geometry"/>
                </mxCell>
                <mxCell id="289" value="" style="whiteSpace=wrap;html=1;aspect=fixed;fillColor=#d5e8d4;strokeColor=#82b366;" vertex="1" parent="1">
                    <mxGeometry x="480" y="160" width="40" height="40" as="geometry"/>
                </mxCell>
                <mxCell id="290" value="" style="whiteSpace=wrap;html=1;aspect=fixed;fillColor=#d5e8d4;strokeColor=#82b366;" vertex="1" parent="1">
                    <mxGeometry x="440" y="160" width="40" height="40" as="geometry"/>
                </mxCell>
                <mxCell id="300" style="edgeStyle=none;html=1;entryX=0.5;entryY=0;entryDx=0;entryDy=0;fontFamily=宋体;fontSource=https%3A%2F%2Ffonts.googleapis.com%2Fcss%3Ffamily%3D%25E5%25AE%258B%25E4%25BD%2593;fontSize=15;" edge="1" parent="1" source="291" target="299">
                    <mxGeometry relative="1" as="geometry">
                        <Array as="points">
                            <mxPoint x="705" y="180"/>
                        </Array>
                    </mxGeometry>
                </mxCell>
                <mxCell id="291" value="" style="whiteSpace=wrap;html=1;aspect=fixed;fillColor=#d5e8d4;strokeColor=#82b366;" vertex="1" parent="1">
                    <mxGeometry x="600" y="160" width="40" height="40" as="geometry"/>
                </mxCell>
                <mxCell id="292" value="" style="whiteSpace=wrap;html=1;aspect=fixed;fillColor=#d5e8d4;strokeColor=#82b366;" vertex="1" parent="1">
                    <mxGeometry x="560" y="160" width="40" height="40" as="geometry"/>
                </mxCell>
                <mxCell id="293" value="" style="whiteSpace=wrap;html=1;aspect=fixed;fillColor=#d5e8d4;strokeColor=#82b366;" vertex="1" parent="1">
                    <mxGeometry x="520" y="160" width="40" height="40" as="geometry"/>
                </mxCell>
                <mxCell id="294" value="" style="whiteSpace=wrap;html=1;aspect=fixed;fillColor=#d5e8d4;strokeColor=#82b366;" vertex="1" parent="1">
                    <mxGeometry x="80" y="200" width="40" height="40" as="geometry"/>
                </mxCell>
                <mxCell id="295" value="" style="whiteSpace=wrap;html=1;aspect=fixed;fillColor=#d5e8d4;strokeColor=#82b366;" vertex="1" parent="1">
                    <mxGeometry x="40" y="200" width="40" height="40" as="geometry"/>
                </mxCell>
                <mxCell id="296" value="&lt;font face=&quot;Times New Roman&quot;&gt;left&lt;br&gt;0&lt;/font&gt;" style="whiteSpace=wrap;html=1;aspect=fixed;fillColor=#d5e8d4;strokeColor=#82b366;" vertex="1" parent="1">
                    <mxGeometry x="200" y="200" width="40" height="40" as="geometry"/>
                </mxCell>
                <mxCell id="297" value="" style="whiteSpace=wrap;html=1;aspect=fixed;fillColor=#d5e8d4;strokeColor=#82b366;" vertex="1" parent="1">
                    <mxGeometry x="160" y="200" width="40" height="40" as="geometry"/>
                </mxCell>
                <mxCell id="298" value="" style="whiteSpace=wrap;html=1;aspect=fixed;fillColor=#d5e8d4;strokeColor=#82b366;" vertex="1" parent="1">
                    <mxGeometry x="120" y="200" width="40" height="40" as="geometry"/>
                </mxCell>
                <mxCell id="299" value="&lt;p class=&quot;MsoNormal&quot;&gt;&lt;font face=&quot;宋体&quot; data-font-src=&quot;https://fonts.googleapis.com/css?family=%E5%AE%8B%E4%BD%93&quot; style=&quot;font-size: 22px&quot;&gt;行寄存器数组&lt;/font&gt;&lt;br&gt;&lt;/p&gt;" style="text;html=1;strokeColor=none;fillColor=none;align=center;verticalAlign=middle;whiteSpace=wrap;rounded=0;" vertex="1" parent="1">
                    <mxGeometry x="650" y="240" width="110" height="70" as="geometry"/>
                </mxCell>
                <mxCell id="458" style="edgeStyle=none;html=1;entryX=0.367;entryY=-0.004;entryDx=0;entryDy=0;entryPerimeter=0;fontFamily=Times New Roman;fontSize=22;exitX=0.5;exitY=0;exitDx=0;exitDy=0;rounded=0;" edge="1" parent="1" source="301" target="276">
                    <mxGeometry relative="1" as="geometry">
                        <Array as="points">
                            <mxPoint x="110" y="390"/>
                            <mxPoint x="260" y="390"/>
                        </Array>
                    </mxGeometry>
                </mxCell>
                <mxCell id="460" style="edgeStyle=none;html=1;entryX=-0.071;entryY=0.472;entryDx=0;entryDy=0;fontFamily=Times New Roman;fontSize=18;rounded=0;entryPerimeter=0;" edge="1" parent="1" target="346">
                    <mxGeometry relative="1" as="geometry">
                        <mxPoint x="260" y="380" as="sourcePoint"/>
                        <Array as="points">
                            <mxPoint x="260" y="454"/>
                        </Array>
                    </mxGeometry>
                </mxCell>
                <mxCell id="301" value="&lt;font face=&quot;Times New Roman&quot;&gt;2&lt;/font&gt;" style="rounded=0;whiteSpace=wrap;html=1;fontFamily=宋体;fontSource=https%3A%2F%2Ffonts.googleapis.com%2Fcss%3Ffamily%3D%25E5%25AE%258B%25E4%25BD%2593;fontSize=15;fillColor=#fff2cc;strokeColor=#d6b656;" vertex="1" parent="1">
                    <mxGeometry x="80" y="410" width="60" height="30" as="geometry"/>
                </mxCell>
                <mxCell id="302" value="&lt;font face=&quot;Times New Roman&quot;&gt;4&lt;/font&gt;" style="rounded=0;whiteSpace=wrap;html=1;fontFamily=宋体;fontSource=https%3A%2F%2Ffonts.googleapis.com%2Fcss%3Ffamily%3D%25E5%25AE%258B%25E4%25BD%2593;fontSize=15;" vertex="1" parent="1">
                    <mxGeometry x="80" y="440" width="60" height="30" as="geometry"/>
                </mxCell>
                <mxCell id="303" value="&lt;span style=&quot;font-family: &amp;#34;times new roman&amp;#34;&quot;&gt;5&lt;/span&gt;" style="rounded=0;whiteSpace=wrap;html=1;fontFamily=宋体;fontSource=https%3A%2F%2Ffonts.googleapis.com%2Fcss%3Ffamily%3D%25E5%25AE%258B%25E4%25BD%2593;fontSize=15;" vertex="1" parent="1">
                    <mxGeometry x="80" y="470" width="60" height="30" as="geometry"/>
                </mxCell>
                <mxCell id="304" value="&lt;font face=&quot;Times New Roman&quot;&gt;6&lt;/font&gt;" style="rounded=0;whiteSpace=wrap;html=1;fontFamily=宋体;fontSource=https%3A%2F%2Ffonts.googleapis.com%2Fcss%3Ffamily%3D%25E5%25AE%258B%25E4%25BD%2593;fontSize=15;" vertex="1" parent="1">
                    <mxGeometry x="80" y="500" width="60" height="30" as="geometry"/>
                </mxCell>
                <mxCell id="305" value="&lt;font face=&quot;Times New Roman&quot;&gt;7&lt;/font&gt;" style="rounded=0;whiteSpace=wrap;html=1;fontFamily=宋体;fontSource=https%3A%2F%2Ffonts.googleapis.com%2Fcss%3Ffamily%3D%25E5%25AE%258B%25E4%25BD%2593;fontSize=15;" vertex="1" parent="1">
                    <mxGeometry x="80" y="530" width="60" height="30" as="geometry"/>
                </mxCell>
                <mxCell id="306" value="&lt;font face=&quot;Times New Roman&quot;&gt;8&lt;/font&gt;" style="rounded=0;whiteSpace=wrap;html=1;fontFamily=宋体;fontSource=https%3A%2F%2Ffonts.googleapis.com%2Fcss%3Ffamily%3D%25E5%25AE%258B%25E4%25BD%2593;fontSize=15;" vertex="1" parent="1">
                    <mxGeometry x="80" y="560" width="60" height="30" as="geometry"/>
                </mxCell>
                <mxCell id="307" value="&lt;font face=&quot;Times New Roman&quot;&gt;9&lt;/font&gt;" style="rounded=0;whiteSpace=wrap;html=1;fontFamily=宋体;fontSource=https%3A%2F%2Ffonts.googleapis.com%2Fcss%3Ffamily%3D%25E5%25AE%258B%25E4%25BD%2593;fontSize=15;" vertex="1" parent="1">
                    <mxGeometry x="80" y="590" width="60" height="30" as="geometry"/>
                </mxCell>
                <mxCell id="308" value="&lt;font face=&quot;Times New Roman&quot;&gt;...&lt;/font&gt;" style="rounded=0;whiteSpace=wrap;html=1;fontFamily=宋体;fontSource=https%3A%2F%2Ffonts.googleapis.com%2Fcss%3Ffamily%3D%25E5%25AE%258B%25E4%25BD%2593;fontSize=15;" vertex="1" parent="1">
                    <mxGeometry x="80" y="620" width="60" height="30" as="geometry"/>
                </mxCell>
                <mxCell id="309" value="" style="rounded=0;whiteSpace=wrap;html=1;fontFamily=宋体;fontSource=https%3A%2F%2Ffonts.googleapis.com%2Fcss%3Ffamily%3D%25E5%25AE%258B%25E4%25BD%2593;fontSize=15;" vertex="1" parent="1">
                    <mxGeometry x="360" y="410" width="60" height="30" as="geometry"/>
                </mxCell>
                <mxCell id="310" value="" style="rounded=0;whiteSpace=wrap;html=1;fontFamily=宋体;fontSource=https%3A%2F%2Ffonts.googleapis.com%2Fcss%3Ffamily%3D%25E5%25AE%258B%25E4%25BD%2593;fontSize=15;fillColor=#ffe6cc;strokeColor=#d79b00;" vertex="1" parent="1">
                    <mxGeometry x="360" y="440" width="60" height="30" as="geometry"/>
                </mxCell>
                <mxCell id="311" value="" style="rounded=0;whiteSpace=wrap;html=1;fontFamily=宋体;fontSource=https%3A%2F%2Ffonts.googleapis.com%2Fcss%3Ffamily%3D%25E5%25AE%258B%25E4%25BD%2593;fontSize=15;" vertex="1" parent="1">
                    <mxGeometry x="360" y="470" width="60" height="30" as="geometry"/>
                </mxCell>
                <mxCell id="312" value="" style="rounded=0;whiteSpace=wrap;html=1;fontFamily=宋体;fontSource=https%3A%2F%2Ffonts.googleapis.com%2Fcss%3Ffamily%3D%25E5%25AE%258B%25E4%25BD%2593;fontSize=15;" vertex="1" parent="1">
                    <mxGeometry x="360" y="500" width="60" height="30" as="geometry"/>
                </mxCell>
                <mxCell id="313" value="" style="rounded=0;whiteSpace=wrap;html=1;fontFamily=宋体;fontSource=https%3A%2F%2Ffonts.googleapis.com%2Fcss%3Ffamily%3D%25E5%25AE%258B%25E4%25BD%2593;fontSize=15;" vertex="1" parent="1">
                    <mxGeometry x="360" y="530" width="60" height="30" as="geometry"/>
                </mxCell>
                <mxCell id="314" value="" style="rounded=0;whiteSpace=wrap;html=1;fontFamily=宋体;fontSource=https%3A%2F%2Ffonts.googleapis.com%2Fcss%3Ffamily%3D%25E5%25AE%258B%25E4%25BD%2593;fontSize=15;" vertex="1" parent="1">
                    <mxGeometry x="360" y="560" width="60" height="30" as="geometry"/>
                </mxCell>
                <mxCell id="315" value="" style="rounded=0;whiteSpace=wrap;html=1;fontFamily=宋体;fontSource=https%3A%2F%2Ffonts.googleapis.com%2Fcss%3Ffamily%3D%25E5%25AE%258B%25E4%25BD%2593;fontSize=15;" vertex="1" parent="1">
                    <mxGeometry x="360" y="590" width="60" height="30" as="geometry"/>
                </mxCell>
                <mxCell id="316" value="" style="rounded=0;whiteSpace=wrap;html=1;fontFamily=宋体;fontSource=https%3A%2F%2Ffonts.googleapis.com%2Fcss%3Ffamily%3D%25E5%25AE%258B%25E4%25BD%2593;fontSize=15;" vertex="1" parent="1">
                    <mxGeometry x="360" y="620" width="60" height="30" as="geometry"/>
                </mxCell>
                <mxCell id="317" value="" style="rounded=0;whiteSpace=wrap;html=1;fontFamily=宋体;fontSource=https%3A%2F%2Ffonts.googleapis.com%2Fcss%3Ffamily%3D%25E5%25AE%258B%25E4%25BD%2593;fontSize=15;" vertex="1" parent="1">
                    <mxGeometry x="420" y="410" width="60" height="30" as="geometry"/>
                </mxCell>
                <mxCell id="318" value="" style="rounded=0;whiteSpace=wrap;html=1;fontFamily=宋体;fontSource=https%3A%2F%2Ffonts.googleapis.com%2Fcss%3Ffamily%3D%25E5%25AE%258B%25E4%25BD%2593;fontSize=15;fillColor=#ffe6cc;strokeColor=#d79b00;" vertex="1" parent="1">
                    <mxGeometry x="420" y="440" width="60" height="30" as="geometry"/>
                </mxCell>
                <mxCell id="319" value="" style="rounded=0;whiteSpace=wrap;html=1;fontFamily=宋体;fontSource=https%3A%2F%2Ffonts.googleapis.com%2Fcss%3Ffamily%3D%25E5%25AE%258B%25E4%25BD%2593;fontSize=15;" vertex="1" parent="1">
                    <mxGeometry x="420" y="470" width="60" height="30" as="geometry"/>
                </mxCell>
                <mxCell id="320" value="" style="rounded=0;whiteSpace=wrap;html=1;fontFamily=宋体;fontSource=https%3A%2F%2Ffonts.googleapis.com%2Fcss%3Ffamily%3D%25E5%25AE%258B%25E4%25BD%2593;fontSize=15;" vertex="1" parent="1">
                    <mxGeometry x="420" y="500" width="60" height="30" as="geometry"/>
                </mxCell>
                <mxCell id="321" value="" style="rounded=0;whiteSpace=wrap;html=1;fontFamily=宋体;fontSource=https%3A%2F%2Ffonts.googleapis.com%2Fcss%3Ffamily%3D%25E5%25AE%258B%25E4%25BD%2593;fontSize=15;" vertex="1" parent="1">
                    <mxGeometry x="420" y="530" width="60" height="30" as="geometry"/>
                </mxCell>
                <mxCell id="322" value="" style="rounded=0;whiteSpace=wrap;html=1;fontFamily=宋体;fontSource=https%3A%2F%2Ffonts.googleapis.com%2Fcss%3Ffamily%3D%25E5%25AE%258B%25E4%25BD%2593;fontSize=15;" vertex="1" parent="1">
                    <mxGeometry x="420" y="560" width="60" height="30" as="geometry"/>
                </mxCell>
                <mxCell id="323" value="" style="rounded=0;whiteSpace=wrap;html=1;fontFamily=宋体;fontSource=https%3A%2F%2Ffonts.googleapis.com%2Fcss%3Ffamily%3D%25E5%25AE%258B%25E4%25BD%2593;fontSize=15;" vertex="1" parent="1">
                    <mxGeometry x="420" y="590" width="60" height="30" as="geometry"/>
                </mxCell>
                <mxCell id="324" value="" style="rounded=0;whiteSpace=wrap;html=1;fontFamily=宋体;fontSource=https%3A%2F%2Ffonts.googleapis.com%2Fcss%3Ffamily%3D%25E5%25AE%258B%25E4%25BD%2593;fontSize=15;" vertex="1" parent="1">
                    <mxGeometry x="420" y="620" width="60" height="30" as="geometry"/>
                </mxCell>
                <mxCell id="325" value="" style="rounded=0;whiteSpace=wrap;html=1;fontFamily=宋体;fontSource=https%3A%2F%2Ffonts.googleapis.com%2Fcss%3Ffamily%3D%25E5%25AE%258B%25E4%25BD%2593;fontSize=15;" vertex="1" parent="1">
                    <mxGeometry x="480" y="410" width="60" height="30" as="geometry"/>
                </mxCell>
                <mxCell id="326" value="" style="rounded=0;whiteSpace=wrap;html=1;fontFamily=宋体;fontSource=https%3A%2F%2Ffonts.googleapis.com%2Fcss%3Ffamily%3D%25E5%25AE%258B%25E4%25BD%2593;fontSize=15;fillColor=#ffe6cc;strokeColor=#d79b00;" vertex="1" parent="1">
                    <mxGeometry x="480" y="440" width="60" height="30" as="geometry"/>
                </mxCell>
                <mxCell id="327" value="" style="rounded=0;whiteSpace=wrap;html=1;fontFamily=宋体;fontSource=https%3A%2F%2Ffonts.googleapis.com%2Fcss%3Ffamily%3D%25E5%25AE%258B%25E4%25BD%2593;fontSize=15;" vertex="1" parent="1">
                    <mxGeometry x="480" y="470" width="60" height="30" as="geometry"/>
                </mxCell>
                <mxCell id="328" value="" style="rounded=0;whiteSpace=wrap;html=1;fontFamily=宋体;fontSource=https%3A%2F%2Ffonts.googleapis.com%2Fcss%3Ffamily%3D%25E5%25AE%258B%25E4%25BD%2593;fontSize=15;" vertex="1" parent="1">
                    <mxGeometry x="480" y="500" width="60" height="30" as="geometry"/>
                </mxCell>
                <mxCell id="329" value="" style="rounded=0;whiteSpace=wrap;html=1;fontFamily=宋体;fontSource=https%3A%2F%2Ffonts.googleapis.com%2Fcss%3Ffamily%3D%25E5%25AE%258B%25E4%25BD%2593;fontSize=15;" vertex="1" parent="1">
                    <mxGeometry x="480" y="530" width="60" height="30" as="geometry"/>
                </mxCell>
                <mxCell id="330" value="" style="rounded=0;whiteSpace=wrap;html=1;fontFamily=宋体;fontSource=https%3A%2F%2Ffonts.googleapis.com%2Fcss%3Ffamily%3D%25E5%25AE%258B%25E4%25BD%2593;fontSize=15;" vertex="1" parent="1">
                    <mxGeometry x="480" y="560" width="60" height="30" as="geometry"/>
                </mxCell>
                <mxCell id="331" value="" style="rounded=0;whiteSpace=wrap;html=1;fontFamily=宋体;fontSource=https%3A%2F%2Ffonts.googleapis.com%2Fcss%3Ffamily%3D%25E5%25AE%258B%25E4%25BD%2593;fontSize=15;" vertex="1" parent="1">
                    <mxGeometry x="480" y="590" width="60" height="30" as="geometry"/>
                </mxCell>
                <mxCell id="332" value="" style="rounded=0;whiteSpace=wrap;html=1;fontFamily=宋体;fontSource=https%3A%2F%2Ffonts.googleapis.com%2Fcss%3Ffamily%3D%25E5%25AE%258B%25E4%25BD%2593;fontSize=15;" vertex="1" parent="1">
                    <mxGeometry x="480" y="620" width="60" height="30" as="geometry"/>
                </mxCell>
                <mxCell id="333" value="" style="rounded=0;whiteSpace=wrap;html=1;fontFamily=宋体;fontSource=https%3A%2F%2Ffonts.googleapis.com%2Fcss%3Ffamily%3D%25E5%25AE%258B%25E4%25BD%2593;fontSize=15;" vertex="1" parent="1">
                    <mxGeometry x="540" y="410" width="60" height="30" as="geometry"/>
                </mxCell>
                <mxCell id="334" value="" style="rounded=0;whiteSpace=wrap;html=1;fontFamily=宋体;fontSource=https%3A%2F%2Ffonts.googleapis.com%2Fcss%3Ffamily%3D%25E5%25AE%258B%25E4%25BD%2593;fontSize=15;fillColor=#ffe6cc;strokeColor=#d79b00;" vertex="1" parent="1">
                    <mxGeometry x="540" y="440" width="60" height="30" as="geometry"/>
                </mxCell>
                <mxCell id="335" value="" style="rounded=0;whiteSpace=wrap;html=1;fontFamily=宋体;fontSource=https%3A%2F%2Ffonts.googleapis.com%2Fcss%3Ffamily%3D%25E5%25AE%258B%25E4%25BD%2593;fontSize=15;" vertex="1" parent="1">
                    <mxGeometry x="540" y="470" width="60" height="30" as="geometry"/>
                </mxCell>
                <mxCell id="336" value="" style="rounded=0;whiteSpace=wrap;html=1;fontFamily=宋体;fontSource=https%3A%2F%2Ffonts.googleapis.com%2Fcss%3Ffamily%3D%25E5%25AE%258B%25E4%25BD%2593;fontSize=15;" vertex="1" parent="1">
                    <mxGeometry x="540" y="500" width="60" height="30" as="geometry"/>
                </mxCell>
                <mxCell id="337" value="" style="rounded=0;whiteSpace=wrap;html=1;fontFamily=宋体;fontSource=https%3A%2F%2Ffonts.googleapis.com%2Fcss%3Ffamily%3D%25E5%25AE%258B%25E4%25BD%2593;fontSize=15;" vertex="1" parent="1">
                    <mxGeometry x="540" y="530" width="60" height="30" as="geometry"/>
                </mxCell>
                <mxCell id="338" value="" style="rounded=0;whiteSpace=wrap;html=1;fontFamily=宋体;fontSource=https%3A%2F%2Ffonts.googleapis.com%2Fcss%3Ffamily%3D%25E5%25AE%258B%25E4%25BD%2593;fontSize=15;" vertex="1" parent="1">
                    <mxGeometry x="540" y="560" width="60" height="30" as="geometry"/>
                </mxCell>
                <mxCell id="339" value="" style="rounded=0;whiteSpace=wrap;html=1;fontFamily=宋体;fontSource=https%3A%2F%2Ffonts.googleapis.com%2Fcss%3Ffamily%3D%25E5%25AE%258B%25E4%25BD%2593;fontSize=15;" vertex="1" parent="1">
                    <mxGeometry x="540" y="590" width="60" height="30" as="geometry"/>
                </mxCell>
                <mxCell id="340" value="" style="rounded=0;whiteSpace=wrap;html=1;fontFamily=宋体;fontSource=https%3A%2F%2Ffonts.googleapis.com%2Fcss%3Ffamily%3D%25E5%25AE%258B%25E4%25BD%2593;fontSize=15;" vertex="1" parent="1">
                    <mxGeometry x="540" y="620" width="60" height="30" as="geometry"/>
                </mxCell>
                <mxCell id="341" value="&lt;font data-font-src=&quot;https://fonts.googleapis.com/css?family=%E5%AE%8B%E4%BD%93&quot; style=&quot;font-size: 15px&quot; face=&quot;Times New Roman&quot;&gt;X1&lt;/font&gt;" style="text;html=1;strokeColor=none;fillColor=none;align=center;verticalAlign=middle;whiteSpace=wrap;rounded=0;" vertex="1" parent="1">
                    <mxGeometry x="360" y="380" width="60" height="30" as="geometry"/>
                </mxCell>
                <mxCell id="342" value="&lt;font data-font-src=&quot;https://fonts.googleapis.com/css?family=%E5%AE%8B%E4%BD%93&quot; style=&quot;font-size: 15px&quot; face=&quot;Times New Roman&quot;&gt;Y1&lt;/font&gt;" style="text;html=1;strokeColor=none;fillColor=none;align=center;verticalAlign=middle;whiteSpace=wrap;rounded=0;" vertex="1" parent="1">
                    <mxGeometry x="420" y="380" width="60" height="30" as="geometry"/>
                </mxCell>
                <mxCell id="343" value="&lt;font data-font-src=&quot;https://fonts.googleapis.com/css?family=%E5%AE%8B%E4%BD%93&quot; style=&quot;font-size: 15px&quot; face=&quot;Times New Roman&quot;&gt;X2&lt;/font&gt;" style="text;html=1;strokeColor=none;fillColor=none;align=center;verticalAlign=middle;whiteSpace=wrap;rounded=0;" vertex="1" parent="1">
                    <mxGeometry x="480" y="380" width="60" height="30" as="geometry"/>
                </mxCell>
                <mxCell id="344" value="&lt;font data-font-src=&quot;https://fonts.googleapis.com/css?family=%E5%AE%8B%E4%BD%93&quot; style=&quot;font-size: 15px&quot; face=&quot;Times New Roman&quot;&gt;Y2&lt;/font&gt;" style="text;html=1;strokeColor=none;fillColor=none;align=center;verticalAlign=middle;whiteSpace=wrap;rounded=0;" vertex="1" parent="1">
                    <mxGeometry x="540" y="380" width="60" height="30" as="geometry"/>
                </mxCell>
                <mxCell id="345" value="&lt;font data-font-src=&quot;https://fonts.googleapis.com/css?family=%E5%AE%8B%E4%BD%93&quot; style=&quot;font-size: 15px&quot; face=&quot;Times New Roman&quot;&gt;1&lt;/font&gt;" style="text;html=1;strokeColor=none;fillColor=none;align=center;verticalAlign=middle;whiteSpace=wrap;rounded=0;" vertex="1" parent="1">
                    <mxGeometry x="330" y="410" width="30" height="30" as="geometry"/>
                </mxCell>
                <mxCell id="346" value="&lt;font data-font-src=&quot;https://fonts.googleapis.com/css?family=%E5%AE%8B%E4%BD%93&quot; style=&quot;font-size: 15px&quot; face=&quot;Times New Roman&quot;&gt;2&lt;/font&gt;" style="text;html=1;strokeColor=none;fillColor=none;align=center;verticalAlign=middle;whiteSpace=wrap;rounded=0;" vertex="1" parent="1">
                    <mxGeometry x="330" y="440" width="30" height="30" as="geometry"/>
                </mxCell>
                <mxCell id="347" value="&lt;font data-font-src=&quot;https://fonts.googleapis.com/css?family=%E5%AE%8B%E4%BD%93&quot; style=&quot;font-size: 15px&quot; face=&quot;Times New Roman&quot;&gt;3&lt;/font&gt;" style="text;html=1;strokeColor=none;fillColor=none;align=center;verticalAlign=middle;whiteSpace=wrap;rounded=0;" vertex="1" parent="1">
                    <mxGeometry x="330" y="470" width="30" height="30" as="geometry"/>
                </mxCell>
                <mxCell id="348" value="&lt;font data-font-src=&quot;https://fonts.googleapis.com/css?family=%E5%AE%8B%E4%BD%93&quot; style=&quot;font-size: 15px&quot; face=&quot;Times New Roman&quot;&gt;4&lt;/font&gt;" style="text;html=1;strokeColor=none;fillColor=none;align=center;verticalAlign=middle;whiteSpace=wrap;rounded=0;" vertex="1" parent="1">
                    <mxGeometry x="330" y="500" width="30" height="30" as="geometry"/>
                </mxCell>
                <mxCell id="349" value="&lt;font data-font-src=&quot;https://fonts.googleapis.com/css?family=%E5%AE%8B%E4%BD%93&quot; style=&quot;font-size: 15px&quot; face=&quot;Times New Roman&quot;&gt;5&lt;/font&gt;" style="text;html=1;strokeColor=none;fillColor=none;align=center;verticalAlign=middle;whiteSpace=wrap;rounded=0;" vertex="1" parent="1">
                    <mxGeometry x="330" y="530" width="30" height="30" as="geometry"/>
                </mxCell>
                <mxCell id="350" value="&lt;font data-font-src=&quot;https://fonts.googleapis.com/css?family=%E5%AE%8B%E4%BD%93&quot; style=&quot;font-size: 15px&quot; face=&quot;Times New Roman&quot;&gt;6&lt;/font&gt;" style="text;html=1;strokeColor=none;fillColor=none;align=center;verticalAlign=middle;whiteSpace=wrap;rounded=0;" vertex="1" parent="1">
                    <mxGeometry x="330" y="560" width="30" height="30" as="geometry"/>
                </mxCell>
                <mxCell id="351" value="&lt;font data-font-src=&quot;https://fonts.googleapis.com/css?family=%E5%AE%8B%E4%BD%93&quot; style=&quot;font-size: 15px&quot; face=&quot;Times New Roman&quot;&gt;7&lt;/font&gt;" style="text;html=1;strokeColor=none;fillColor=none;align=center;verticalAlign=middle;whiteSpace=wrap;rounded=0;" vertex="1" parent="1">
                    <mxGeometry x="330" y="590" width="30" height="30" as="geometry"/>
                </mxCell>
                <mxCell id="352" value="&lt;font data-font-src=&quot;https://fonts.googleapis.com/css?family=%E5%AE%8B%E4%BD%93&quot; style=&quot;font-size: 15px&quot; face=&quot;Times New Roman&quot;&gt;...&lt;/font&gt;" style="text;html=1;strokeColor=none;fillColor=none;align=center;verticalAlign=middle;whiteSpace=wrap;rounded=0;" vertex="1" parent="1">
                    <mxGeometry x="330" y="620" width="30" height="30" as="geometry"/>
                </mxCell>
                <mxCell id="353" value="&lt;p class=&quot;MsoNormal&quot;&gt;&lt;font style=&quot;font-size: 22px&quot; face=&quot;宋体&quot; data-font-src=&quot;https://fonts.googleapis.com/css?family=%E5%AE%8B%E4%BD%93&quot;&gt;标注序号栈&lt;/font&gt;&lt;/p&gt;" style="text;html=1;strokeColor=none;fillColor=none;align=center;verticalAlign=middle;whiteSpace=wrap;rounded=0;" vertex="1" parent="1">
                    <mxGeometry x="140" y="620" width="130" height="30" as="geometry"/>
                </mxCell>
                <mxCell id="354" value="&lt;p class=&quot;MsoNormal&quot; style=&quot;font-size: 22px&quot;&gt;&lt;font face=&quot;宋体&quot; style=&quot;font-size: 22px&quot;&gt;商品位置&lt;/font&gt;&lt;/p&gt;&lt;p class=&quot;MsoNormal&quot; style=&quot;font-size: 22px&quot;&gt;&lt;font face=&quot;宋体&quot; style=&quot;font-size: 22px&quot;&gt;寄存器数组&lt;/font&gt;&lt;/p&gt;" style="text;html=1;strokeColor=none;fillColor=none;align=center;verticalAlign=middle;whiteSpace=wrap;rounded=0;" vertex="1" parent="1">
                    <mxGeometry x="600" y="570" width="130" height="80" as="geometry"/>
                </mxCell>
                <mxCell id="357" value="" style="rounded=0;whiteSpace=wrap;html=1;strokeColor=#DAE8FC;fillColor=#DAE8FC;" vertex="1" parent="1">
                    <mxGeometry x="40" y="950" width="600" height="120" as="geometry"/>
                </mxCell>
                <mxCell id="358" value="" style="rounded=0;whiteSpace=wrap;html=1;strokeColor=#DAE8FC;fillColor=#DAE8FC;" vertex="1" parent="1">
                    <mxGeometry x="280" y="910" width="360" height="40" as="geometry"/>
                </mxCell>
                <mxCell id="359" value="" style="rounded=0;whiteSpace=wrap;html=1;strokeColor=#F8CECC;fillColor=#F8CECC;" vertex="1" parent="1">
                    <mxGeometry x="40" y="870" width="200" height="40" as="geometry"/>
                </mxCell>
                <mxCell id="360" value="" style="rounded=0;whiteSpace=wrap;html=1;strokeColor=#F8CECC;fillColor=#f8cecc;" vertex="1" parent="1">
                    <mxGeometry x="40" y="750" width="600" height="120" as="geometry"/>
                </mxCell>
                <mxCell id="362" value="" style="whiteSpace=wrap;html=1;aspect=fixed;fillColor=#d5e8d4;strokeColor=#82b366;" vertex="1" parent="1">
                    <mxGeometry x="280" y="870" width="40" height="40" as="geometry"/>
                </mxCell>
                <mxCell id="363" value="" style="whiteSpace=wrap;html=1;aspect=fixed;" vertex="1" parent="1">
                    <mxGeometry x="320" y="870" width="40" height="40" as="geometry"/>
                </mxCell>
                <mxCell id="364" value="" style="whiteSpace=wrap;html=1;aspect=fixed;" vertex="1" parent="1">
                    <mxGeometry x="360" y="870" width="40" height="40" as="geometry"/>
                </mxCell>
                <mxCell id="365" value="" style="whiteSpace=wrap;html=1;aspect=fixed;" vertex="1" parent="1">
                    <mxGeometry x="400" y="870" width="40" height="40" as="geometry"/>
                </mxCell>
                <mxCell id="366" value="" style="whiteSpace=wrap;html=1;aspect=fixed;" vertex="1" parent="1">
                    <mxGeometry x="440" y="870" width="40" height="40" as="geometry"/>
                </mxCell>
                <mxCell id="367" value="" style="whiteSpace=wrap;html=1;aspect=fixed;" vertex="1" parent="1">
                    <mxGeometry x="480" y="870" width="40" height="40" as="geometry"/>
                </mxCell>
                <mxCell id="368" value="" style="whiteSpace=wrap;html=1;aspect=fixed;" vertex="1" parent="1">
                    <mxGeometry x="520" y="870" width="40" height="40" as="geometry"/>
                </mxCell>
                <mxCell id="369" value="" style="whiteSpace=wrap;html=1;aspect=fixed;" vertex="1" parent="1">
                    <mxGeometry x="560" y="870" width="40" height="40" as="geometry"/>
                </mxCell>
                <mxCell id="370" value="" style="whiteSpace=wrap;html=1;aspect=fixed;" vertex="1" parent="1">
                    <mxGeometry x="600" y="870" width="40" height="40" as="geometry"/>
                </mxCell>
                <mxCell id="371" value="" style="whiteSpace=wrap;html=1;aspect=fixed;" vertex="1" parent="1">
                    <mxGeometry x="120" y="910" width="40" height="40" as="geometry"/>
                </mxCell>
                <mxCell id="372" value="" style="whiteSpace=wrap;html=1;aspect=fixed;" vertex="1" parent="1">
                    <mxGeometry x="160" y="910" width="40" height="40" as="geometry"/>
                </mxCell>
                <mxCell id="373" value="" style="edgeStyle=none;html=1;" edge="1" parent="1" source="374" target="357">
                    <mxGeometry relative="1" as="geometry"/>
                </mxCell>
                <mxCell id="374" value="" style="whiteSpace=wrap;html=1;aspect=fixed;" vertex="1" parent="1">
                    <mxGeometry x="200" y="910" width="40" height="40" as="geometry"/>
                </mxCell>
                <mxCell id="375" value="" style="whiteSpace=wrap;html=1;aspect=fixed;" vertex="1" parent="1">
                    <mxGeometry x="40" y="910" width="40" height="40" as="geometry"/>
                </mxCell>
                <mxCell id="376" value="" style="whiteSpace=wrap;html=1;aspect=fixed;" vertex="1" parent="1">
                    <mxGeometry x="80" y="910" width="40" height="40" as="geometry"/>
                </mxCell>
                <mxCell id="377" value="" style="whiteSpace=wrap;html=1;aspect=fixed;" vertex="1" parent="1">
                    <mxGeometry x="120" y="910" width="40" height="40" as="geometry"/>
                </mxCell>
                <mxCell id="457" style="edgeStyle=none;html=1;entryX=0;entryY=0.5;entryDx=0;entryDy=0;fontFamily=Times New Roman;fontSize=22;rounded=0;" edge="1" parent="1" source="378" target="446">
                    <mxGeometry relative="1" as="geometry">
                        <Array as="points">
                            <mxPoint x="260" y="1165"/>
                        </Array>
                    </mxGeometry>
                </mxCell>
                <mxCell id="378" value="&lt;font face=&quot;Times New Roman&quot;&gt;now&lt;br&gt;2&lt;br&gt;&lt;/font&gt;" style="whiteSpace=wrap;html=1;aspect=fixed;" vertex="1" parent="1">
                    <mxGeometry x="240" y="910" width="40" height="40" as="geometry"/>
                </mxCell>
                <mxCell id="382" value="" style="whiteSpace=wrap;html=1;aspect=fixed;fillColor=#d5e8d4;strokeColor=#82b366;" vertex="1" parent="1">
                    <mxGeometry x="320" y="870" width="40" height="40" as="geometry"/>
                </mxCell>
                <mxCell id="455" style="edgeStyle=none;html=1;fontFamily=Times New Roman;fontSize=22;" edge="1" parent="1" source="383" target="378">
                    <mxGeometry relative="1" as="geometry"/>
                </mxCell>
                <mxCell id="456" style="edgeStyle=none;html=1;entryX=0;entryY=0.5;entryDx=0;entryDy=0;fontFamily=Times New Roman;fontSize=22;exitX=0.018;exitY=0.446;exitDx=0;exitDy=0;exitPerimeter=0;" edge="1" parent="1" source="362" target="358">
                    <mxGeometry relative="1" as="geometry">
                        <Array as="points">
                            <mxPoint x="300" y="910"/>
                        </Array>
                    </mxGeometry>
                </mxCell>
                <mxCell id="383" value="&lt;font face=&quot;Times New Roman&quot;&gt;up&lt;br&gt;2&lt;/font&gt;" style="whiteSpace=wrap;html=1;aspect=fixed;fillColor=#82B366;strokeColor=#82B366;" vertex="1" parent="1">
                    <mxGeometry x="240" y="870" width="40" height="40" as="geometry"/>
                </mxCell>
                <mxCell id="384" value="" style="whiteSpace=wrap;html=1;aspect=fixed;fillColor=#d5e8d4;strokeColor=#82b366;" vertex="1" parent="1">
                    <mxGeometry x="360" y="870" width="40" height="40" as="geometry"/>
                </mxCell>
                <mxCell id="385" value="" style="whiteSpace=wrap;html=1;aspect=fixed;fillColor=#d5e8d4;strokeColor=#82b366;" vertex="1" parent="1">
                    <mxGeometry x="400" y="870" width="40" height="40" as="geometry"/>
                </mxCell>
                <mxCell id="386" value="" style="whiteSpace=wrap;html=1;aspect=fixed;fillColor=#d5e8d4;strokeColor=#82b366;" vertex="1" parent="1">
                    <mxGeometry x="400" y="870" width="40" height="40" as="geometry"/>
                </mxCell>
                <mxCell id="387" value="" style="whiteSpace=wrap;html=1;aspect=fixed;fillColor=#d5e8d4;strokeColor=#82b366;" vertex="1" parent="1">
                    <mxGeometry x="360" y="870" width="40" height="40" as="geometry"/>
                </mxCell>
                <mxCell id="388" value="" style="whiteSpace=wrap;html=1;aspect=fixed;fillColor=#d5e8d4;strokeColor=#82b366;" vertex="1" parent="1">
                    <mxGeometry x="320" y="870" width="40" height="40" as="geometry"/>
                </mxCell>
                <mxCell id="389" value="" style="whiteSpace=wrap;html=1;aspect=fixed;fillColor=#d5e8d4;strokeColor=#82b366;" vertex="1" parent="1">
                    <mxGeometry x="480" y="870" width="40" height="40" as="geometry"/>
                </mxCell>
                <mxCell id="390" value="" style="whiteSpace=wrap;html=1;aspect=fixed;fillColor=#d5e8d4;strokeColor=#82b366;" vertex="1" parent="1">
                    <mxGeometry x="440" y="870" width="40" height="40" as="geometry"/>
                </mxCell>
                <mxCell id="391" style="edgeStyle=none;html=1;entryX=0.5;entryY=0;entryDx=0;entryDy=0;fontFamily=宋体;fontSource=https%3A%2F%2Ffonts.googleapis.com%2Fcss%3Ffamily%3D%25E5%25AE%258B%25E4%25BD%2593;fontSize=15;" edge="1" parent="1" source="392" target="400">
                    <mxGeometry relative="1" as="geometry">
                        <Array as="points">
                            <mxPoint x="705" y="890"/>
                        </Array>
                    </mxGeometry>
                </mxCell>
                <mxCell id="392" value="" style="whiteSpace=wrap;html=1;aspect=fixed;fillColor=#d5e8d4;strokeColor=#82b366;" vertex="1" parent="1">
                    <mxGeometry x="600" y="870" width="40" height="40" as="geometry"/>
                </mxCell>
                <mxCell id="393" value="" style="whiteSpace=wrap;html=1;aspect=fixed;fillColor=#d5e8d4;strokeColor=#82b366;" vertex="1" parent="1">
                    <mxGeometry x="560" y="870" width="40" height="40" as="geometry"/>
                </mxCell>
                <mxCell id="394" value="" style="whiteSpace=wrap;html=1;aspect=fixed;fillColor=#d5e8d4;strokeColor=#82b366;" vertex="1" parent="1">
                    <mxGeometry x="520" y="870" width="40" height="40" as="geometry"/>
                </mxCell>
                <mxCell id="395" value="" style="whiteSpace=wrap;html=1;aspect=fixed;fillColor=#d5e8d4;strokeColor=#82b366;" vertex="1" parent="1">
                    <mxGeometry x="80" y="910" width="40" height="40" as="geometry"/>
                </mxCell>
                <mxCell id="396" value="" style="whiteSpace=wrap;html=1;aspect=fixed;fillColor=#d5e8d4;strokeColor=#82b366;" vertex="1" parent="1">
                    <mxGeometry x="40" y="910" width="40" height="40" as="geometry"/>
                </mxCell>
                <mxCell id="397" value="&lt;font face=&quot;Times New Roman&quot;&gt;left&lt;br&gt;0&lt;/font&gt;" style="whiteSpace=wrap;html=1;aspect=fixed;fillColor=#d5e8d4;strokeColor=#82b366;" vertex="1" parent="1">
                    <mxGeometry x="200" y="910" width="40" height="40" as="geometry"/>
                </mxCell>
                <mxCell id="398" value="" style="whiteSpace=wrap;html=1;aspect=fixed;fillColor=#d5e8d4;strokeColor=#82b366;" vertex="1" parent="1">
                    <mxGeometry x="160" y="910" width="40" height="40" as="geometry"/>
                </mxCell>
                <mxCell id="399" value="" style="whiteSpace=wrap;html=1;aspect=fixed;fillColor=#d5e8d4;strokeColor=#82b366;" vertex="1" parent="1">
                    <mxGeometry x="120" y="910" width="40" height="40" as="geometry"/>
                </mxCell>
                <mxCell id="400" value="&lt;p class=&quot;MsoNormal&quot;&gt;&lt;font face=&quot;宋体&quot; data-font-src=&quot;https://fonts.googleapis.com/css?family=%E5%AE%8B%E4%BD%93&quot; style=&quot;font-size: 22px&quot;&gt;行寄存器数组&lt;/font&gt;&lt;br&gt;&lt;/p&gt;" style="text;html=1;strokeColor=none;fillColor=none;align=center;verticalAlign=middle;whiteSpace=wrap;rounded=0;" vertex="1" parent="1">
                    <mxGeometry x="650" y="950" width="110" height="70" as="geometry"/>
                </mxCell>
                <mxCell id="401" value="&lt;font face=&quot;Times New Roman&quot;&gt;3&lt;/font&gt;" style="rounded=0;whiteSpace=wrap;html=1;fontFamily=宋体;fontSource=https%3A%2F%2Ffonts.googleapis.com%2Fcss%3Ffamily%3D%25E5%25AE%258B%25E4%25BD%2593;fontSize=15;" vertex="1" parent="1">
                    <mxGeometry x="80" y="1120" width="60" height="30" as="geometry"/>
                </mxCell>
                <mxCell id="402" value="&lt;font face=&quot;Times New Roman&quot;&gt;4&lt;/font&gt;" style="rounded=0;whiteSpace=wrap;html=1;fontFamily=宋体;fontSource=https%3A%2F%2Ffonts.googleapis.com%2Fcss%3Ffamily%3D%25E5%25AE%258B%25E4%25BD%2593;fontSize=15;" vertex="1" parent="1">
                    <mxGeometry x="80" y="1150" width="60" height="30" as="geometry"/>
                </mxCell>
                <mxCell id="403" value="&lt;span style=&quot;font-family: &amp;#34;times new roman&amp;#34;&quot;&gt;5&lt;/span&gt;" style="rounded=0;whiteSpace=wrap;html=1;fontFamily=宋体;fontSource=https%3A%2F%2Ffonts.googleapis.com%2Fcss%3Ffamily%3D%25E5%25AE%258B%25E4%25BD%2593;fontSize=15;" vertex="1" parent="1">
                    <mxGeometry x="80" y="1180" width="60" height="30" as="geometry"/>
                </mxCell>
                <mxCell id="404" value="&lt;font face=&quot;Times New Roman&quot;&gt;6&lt;/font&gt;" style="rounded=0;whiteSpace=wrap;html=1;fontFamily=宋体;fontSource=https%3A%2F%2Ffonts.googleapis.com%2Fcss%3Ffamily%3D%25E5%25AE%258B%25E4%25BD%2593;fontSize=15;" vertex="1" parent="1">
                    <mxGeometry x="80" y="1210" width="60" height="30" as="geometry"/>
                </mxCell>
                <mxCell id="405" value="&lt;font face=&quot;Times New Roman&quot;&gt;7&lt;/font&gt;" style="rounded=0;whiteSpace=wrap;html=1;fontFamily=宋体;fontSource=https%3A%2F%2Ffonts.googleapis.com%2Fcss%3Ffamily%3D%25E5%25AE%258B%25E4%25BD%2593;fontSize=15;" vertex="1" parent="1">
                    <mxGeometry x="80" y="1240" width="60" height="30" as="geometry"/>
                </mxCell>
                <mxCell id="406" value="&lt;font face=&quot;Times New Roman&quot;&gt;8&lt;/font&gt;" style="rounded=0;whiteSpace=wrap;html=1;fontFamily=宋体;fontSource=https%3A%2F%2Ffonts.googleapis.com%2Fcss%3Ffamily%3D%25E5%25AE%258B%25E4%25BD%2593;fontSize=15;" vertex="1" parent="1">
                    <mxGeometry x="80" y="1270" width="60" height="30" as="geometry"/>
                </mxCell>
                <mxCell id="407" value="&lt;font face=&quot;Times New Roman&quot;&gt;9&lt;/font&gt;" style="rounded=0;whiteSpace=wrap;html=1;fontFamily=宋体;fontSource=https%3A%2F%2Ffonts.googleapis.com%2Fcss%3Ffamily%3D%25E5%25AE%258B%25E4%25BD%2593;fontSize=15;" vertex="1" parent="1">
                    <mxGeometry x="80" y="1300" width="60" height="30" as="geometry"/>
                </mxCell>
                <mxCell id="408" value="&lt;font face=&quot;Times New Roman&quot;&gt;...&lt;/font&gt;" style="rounded=0;whiteSpace=wrap;html=1;fontFamily=宋体;fontSource=https%3A%2F%2Ffonts.googleapis.com%2Fcss%3Ffamily%3D%25E5%25AE%258B%25E4%25BD%2593;fontSize=15;" vertex="1" parent="1">
                    <mxGeometry x="80" y="1330" width="60" height="30" as="geometry"/>
                </mxCell>
                <mxCell id="409" value="" style="rounded=0;whiteSpace=wrap;html=1;fontFamily=宋体;fontSource=https%3A%2F%2Ffonts.googleapis.com%2Fcss%3Ffamily%3D%25E5%25AE%258B%25E4%25BD%2593;fontSize=15;" vertex="1" parent="1">
                    <mxGeometry x="360" y="1120" width="60" height="30" as="geometry"/>
                </mxCell>
                <mxCell id="410" value="" style="rounded=0;whiteSpace=wrap;html=1;fontFamily=宋体;fontSource=https%3A%2F%2Ffonts.googleapis.com%2Fcss%3Ffamily%3D%25E5%25AE%258B%25E4%25BD%2593;fontSize=15;fillColor=#ffe6cc;strokeColor=#d79b00;" vertex="1" parent="1">
                    <mxGeometry x="360" y="1150" width="60" height="30" as="geometry"/>
                </mxCell>
                <mxCell id="411" value="" style="rounded=0;whiteSpace=wrap;html=1;fontFamily=宋体;fontSource=https%3A%2F%2Ffonts.googleapis.com%2Fcss%3Ffamily%3D%25E5%25AE%258B%25E4%25BD%2593;fontSize=15;" vertex="1" parent="1">
                    <mxGeometry x="360" y="1180" width="60" height="30" as="geometry"/>
                </mxCell>
                <mxCell id="412" value="" style="rounded=0;whiteSpace=wrap;html=1;fontFamily=宋体;fontSource=https%3A%2F%2Ffonts.googleapis.com%2Fcss%3Ffamily%3D%25E5%25AE%258B%25E4%25BD%2593;fontSize=15;" vertex="1" parent="1">
                    <mxGeometry x="360" y="1210" width="60" height="30" as="geometry"/>
                </mxCell>
                <mxCell id="413" value="" style="rounded=0;whiteSpace=wrap;html=1;fontFamily=宋体;fontSource=https%3A%2F%2Ffonts.googleapis.com%2Fcss%3Ffamily%3D%25E5%25AE%258B%25E4%25BD%2593;fontSize=15;" vertex="1" parent="1">
                    <mxGeometry x="360" y="1240" width="60" height="30" as="geometry"/>
                </mxCell>
                <mxCell id="414" value="" style="rounded=0;whiteSpace=wrap;html=1;fontFamily=宋体;fontSource=https%3A%2F%2Ffonts.googleapis.com%2Fcss%3Ffamily%3D%25E5%25AE%258B%25E4%25BD%2593;fontSize=15;" vertex="1" parent="1">
                    <mxGeometry x="360" y="1270" width="60" height="30" as="geometry"/>
                </mxCell>
                <mxCell id="415" value="" style="rounded=0;whiteSpace=wrap;html=1;fontFamily=宋体;fontSource=https%3A%2F%2Ffonts.googleapis.com%2Fcss%3Ffamily%3D%25E5%25AE%258B%25E4%25BD%2593;fontSize=15;" vertex="1" parent="1">
                    <mxGeometry x="360" y="1300" width="60" height="30" as="geometry"/>
                </mxCell>
                <mxCell id="416" value="" style="rounded=0;whiteSpace=wrap;html=1;fontFamily=宋体;fontSource=https%3A%2F%2Ffonts.googleapis.com%2Fcss%3Ffamily%3D%25E5%25AE%258B%25E4%25BD%2593;fontSize=15;" vertex="1" parent="1">
                    <mxGeometry x="360" y="1330" width="60" height="30" as="geometry"/>
                </mxCell>
                <mxCell id="417" value="" style="rounded=0;whiteSpace=wrap;html=1;fontFamily=宋体;fontSource=https%3A%2F%2Ffonts.googleapis.com%2Fcss%3Ffamily%3D%25E5%25AE%258B%25E4%25BD%2593;fontSize=15;" vertex="1" parent="1">
                    <mxGeometry x="420" y="1120" width="60" height="30" as="geometry"/>
                </mxCell>
                <mxCell id="418" value="" style="rounded=0;whiteSpace=wrap;html=1;fontFamily=宋体;fontSource=https%3A%2F%2Ffonts.googleapis.com%2Fcss%3Ffamily%3D%25E5%25AE%258B%25E4%25BD%2593;fontSize=15;fillColor=#ffe6cc;strokeColor=#d79b00;" vertex="1" parent="1">
                    <mxGeometry x="420" y="1150" width="60" height="30" as="geometry"/>
                </mxCell>
                <mxCell id="419" value="" style="rounded=0;whiteSpace=wrap;html=1;fontFamily=宋体;fontSource=https%3A%2F%2Ffonts.googleapis.com%2Fcss%3Ffamily%3D%25E5%25AE%258B%25E4%25BD%2593;fontSize=15;" vertex="1" parent="1">
                    <mxGeometry x="420" y="1180" width="60" height="30" as="geometry"/>
                </mxCell>
                <mxCell id="420" value="" style="rounded=0;whiteSpace=wrap;html=1;fontFamily=宋体;fontSource=https%3A%2F%2Ffonts.googleapis.com%2Fcss%3Ffamily%3D%25E5%25AE%258B%25E4%25BD%2593;fontSize=15;" vertex="1" parent="1">
                    <mxGeometry x="420" y="1210" width="60" height="30" as="geometry"/>
                </mxCell>
                <mxCell id="421" value="" style="rounded=0;whiteSpace=wrap;html=1;fontFamily=宋体;fontSource=https%3A%2F%2Ffonts.googleapis.com%2Fcss%3Ffamily%3D%25E5%25AE%258B%25E4%25BD%2593;fontSize=15;" vertex="1" parent="1">
                    <mxGeometry x="420" y="1240" width="60" height="30" as="geometry"/>
                </mxCell>
                <mxCell id="422" value="" style="rounded=0;whiteSpace=wrap;html=1;fontFamily=宋体;fontSource=https%3A%2F%2Ffonts.googleapis.com%2Fcss%3Ffamily%3D%25E5%25AE%258B%25E4%25BD%2593;fontSize=15;" vertex="1" parent="1">
                    <mxGeometry x="420" y="1270" width="60" height="30" as="geometry"/>
                </mxCell>
                <mxCell id="423" value="" style="rounded=0;whiteSpace=wrap;html=1;fontFamily=宋体;fontSource=https%3A%2F%2Ffonts.googleapis.com%2Fcss%3Ffamily%3D%25E5%25AE%258B%25E4%25BD%2593;fontSize=15;" vertex="1" parent="1">
                    <mxGeometry x="420" y="1300" width="60" height="30" as="geometry"/>
                </mxCell>
                <mxCell id="424" value="" style="rounded=0;whiteSpace=wrap;html=1;fontFamily=宋体;fontSource=https%3A%2F%2Ffonts.googleapis.com%2Fcss%3Ffamily%3D%25E5%25AE%258B%25E4%25BD%2593;fontSize=15;" vertex="1" parent="1">
                    <mxGeometry x="420" y="1330" width="60" height="30" as="geometry"/>
                </mxCell>
                <mxCell id="425" value="" style="rounded=0;whiteSpace=wrap;html=1;fontFamily=宋体;fontSource=https%3A%2F%2Ffonts.googleapis.com%2Fcss%3Ffamily%3D%25E5%25AE%258B%25E4%25BD%2593;fontSize=15;" vertex="1" parent="1">
                    <mxGeometry x="480" y="1120" width="60" height="30" as="geometry"/>
                </mxCell>
                <mxCell id="426" value="" style="rounded=0;whiteSpace=wrap;html=1;fontFamily=宋体;fontSource=https%3A%2F%2Ffonts.googleapis.com%2Fcss%3Ffamily%3D%25E5%25AE%258B%25E4%25BD%2593;fontSize=15;fillColor=#ffe6cc;strokeColor=#d79b00;" vertex="1" parent="1">
                    <mxGeometry x="480" y="1150" width="60" height="30" as="geometry"/>
                </mxCell>
                <mxCell id="427" value="" style="rounded=0;whiteSpace=wrap;html=1;fontFamily=宋体;fontSource=https%3A%2F%2Ffonts.googleapis.com%2Fcss%3Ffamily%3D%25E5%25AE%258B%25E4%25BD%2593;fontSize=15;" vertex="1" parent="1">
                    <mxGeometry x="480" y="1180" width="60" height="30" as="geometry"/>
                </mxCell>
                <mxCell id="428" value="" style="rounded=0;whiteSpace=wrap;html=1;fontFamily=宋体;fontSource=https%3A%2F%2Ffonts.googleapis.com%2Fcss%3Ffamily%3D%25E5%25AE%258B%25E4%25BD%2593;fontSize=15;" vertex="1" parent="1">
                    <mxGeometry x="480" y="1210" width="60" height="30" as="geometry"/>
                </mxCell>
                <mxCell id="429" value="" style="rounded=0;whiteSpace=wrap;html=1;fontFamily=宋体;fontSource=https%3A%2F%2Ffonts.googleapis.com%2Fcss%3Ffamily%3D%25E5%25AE%258B%25E4%25BD%2593;fontSize=15;" vertex="1" parent="1">
                    <mxGeometry x="480" y="1240" width="60" height="30" as="geometry"/>
                </mxCell>
                <mxCell id="430" value="" style="rounded=0;whiteSpace=wrap;html=1;fontFamily=宋体;fontSource=https%3A%2F%2Ffonts.googleapis.com%2Fcss%3Ffamily%3D%25E5%25AE%258B%25E4%25BD%2593;fontSize=15;" vertex="1" parent="1">
                    <mxGeometry x="480" y="1270" width="60" height="30" as="geometry"/>
                </mxCell>
                <mxCell id="431" value="" style="rounded=0;whiteSpace=wrap;html=1;fontFamily=宋体;fontSource=https%3A%2F%2Ffonts.googleapis.com%2Fcss%3Ffamily%3D%25E5%25AE%258B%25E4%25BD%2593;fontSize=15;" vertex="1" parent="1">
                    <mxGeometry x="480" y="1300" width="60" height="30" as="geometry"/>
                </mxCell>
                <mxCell id="432" value="" style="rounded=0;whiteSpace=wrap;html=1;fontFamily=宋体;fontSource=https%3A%2F%2Ffonts.googleapis.com%2Fcss%3Ffamily%3D%25E5%25AE%258B%25E4%25BD%2593;fontSize=15;" vertex="1" parent="1">
                    <mxGeometry x="480" y="1330" width="60" height="30" as="geometry"/>
                </mxCell>
                <mxCell id="433" value="" style="rounded=0;whiteSpace=wrap;html=1;fontFamily=宋体;fontSource=https%3A%2F%2Ffonts.googleapis.com%2Fcss%3Ffamily%3D%25E5%25AE%258B%25E4%25BD%2593;fontSize=15;" vertex="1" parent="1">
                    <mxGeometry x="540" y="1120" width="60" height="30" as="geometry"/>
                </mxCell>
                <mxCell id="434" value="" style="rounded=0;whiteSpace=wrap;html=1;fontFamily=宋体;fontSource=https%3A%2F%2Ffonts.googleapis.com%2Fcss%3Ffamily%3D%25E5%25AE%258B%25E4%25BD%2593;fontSize=15;fillColor=#ffe6cc;strokeColor=#d79b00;" vertex="1" parent="1">
                    <mxGeometry x="540" y="1150" width="60" height="30" as="geometry"/>
                </mxCell>
                <mxCell id="435" value="" style="rounded=0;whiteSpace=wrap;html=1;fontFamily=宋体;fontSource=https%3A%2F%2Ffonts.googleapis.com%2Fcss%3Ffamily%3D%25E5%25AE%258B%25E4%25BD%2593;fontSize=15;" vertex="1" parent="1">
                    <mxGeometry x="540" y="1180" width="60" height="30" as="geometry"/>
                </mxCell>
                <mxCell id="436" value="" style="rounded=0;whiteSpace=wrap;html=1;fontFamily=宋体;fontSource=https%3A%2F%2Ffonts.googleapis.com%2Fcss%3Ffamily%3D%25E5%25AE%258B%25E4%25BD%2593;fontSize=15;" vertex="1" parent="1">
                    <mxGeometry x="540" y="1210" width="60" height="30" as="geometry"/>
                </mxCell>
                <mxCell id="437" value="" style="rounded=0;whiteSpace=wrap;html=1;fontFamily=宋体;fontSource=https%3A%2F%2Ffonts.googleapis.com%2Fcss%3Ffamily%3D%25E5%25AE%258B%25E4%25BD%2593;fontSize=15;" vertex="1" parent="1">
                    <mxGeometry x="540" y="1240" width="60" height="30" as="geometry"/>
                </mxCell>
                <mxCell id="438" value="" style="rounded=0;whiteSpace=wrap;html=1;fontFamily=宋体;fontSource=https%3A%2F%2Ffonts.googleapis.com%2Fcss%3Ffamily%3D%25E5%25AE%258B%25E4%25BD%2593;fontSize=15;" vertex="1" parent="1">
                    <mxGeometry x="540" y="1270" width="60" height="30" as="geometry"/>
                </mxCell>
                <mxCell id="439" value="" style="rounded=0;whiteSpace=wrap;html=1;fontFamily=宋体;fontSource=https%3A%2F%2Ffonts.googleapis.com%2Fcss%3Ffamily%3D%25E5%25AE%258B%25E4%25BD%2593;fontSize=15;" vertex="1" parent="1">
                    <mxGeometry x="540" y="1300" width="60" height="30" as="geometry"/>
                </mxCell>
                <mxCell id="440" value="" style="rounded=0;whiteSpace=wrap;html=1;fontFamily=宋体;fontSource=https%3A%2F%2Ffonts.googleapis.com%2Fcss%3Ffamily%3D%25E5%25AE%258B%25E4%25BD%2593;fontSize=15;" vertex="1" parent="1">
                    <mxGeometry x="540" y="1330" width="60" height="30" as="geometry"/>
                </mxCell>
                <mxCell id="441" value="&lt;font data-font-src=&quot;https://fonts.googleapis.com/css?family=%E5%AE%8B%E4%BD%93&quot; style=&quot;font-size: 15px&quot; face=&quot;Times New Roman&quot;&gt;X1&lt;/font&gt;" style="text;html=1;strokeColor=none;fillColor=none;align=center;verticalAlign=middle;whiteSpace=wrap;rounded=0;" vertex="1" parent="1">
                    <mxGeometry x="360" y="1090" width="60" height="30" as="geometry"/>
                </mxCell>
                <mxCell id="442" value="&lt;font data-font-src=&quot;https://fonts.googleapis.com/css?family=%E5%AE%8B%E4%BD%93&quot; style=&quot;font-size: 15px&quot; face=&quot;Times New Roman&quot;&gt;Y1&lt;/font&gt;" style="text;html=1;strokeColor=none;fillColor=none;align=center;verticalAlign=middle;whiteSpace=wrap;rounded=0;" vertex="1" parent="1">
                    <mxGeometry x="420" y="1090" width="60" height="30" as="geometry"/>
                </mxCell>
                <mxCell id="443" value="&lt;font data-font-src=&quot;https://fonts.googleapis.com/css?family=%E5%AE%8B%E4%BD%93&quot; style=&quot;font-size: 15px&quot; face=&quot;Times New Roman&quot;&gt;X2&lt;/font&gt;" style="text;html=1;strokeColor=none;fillColor=none;align=center;verticalAlign=middle;whiteSpace=wrap;rounded=0;" vertex="1" parent="1">
                    <mxGeometry x="480" y="1090" width="60" height="30" as="geometry"/>
                </mxCell>
                <mxCell id="444" value="&lt;font data-font-src=&quot;https://fonts.googleapis.com/css?family=%E5%AE%8B%E4%BD%93&quot; style=&quot;font-size: 15px&quot; face=&quot;Times New Roman&quot;&gt;Y2&lt;/font&gt;" style="text;html=1;strokeColor=none;fillColor=none;align=center;verticalAlign=middle;whiteSpace=wrap;rounded=0;" vertex="1" parent="1">
                    <mxGeometry x="540" y="1090" width="60" height="30" as="geometry"/>
                </mxCell>
                <mxCell id="445" value="&lt;font data-font-src=&quot;https://fonts.googleapis.com/css?family=%E5%AE%8B%E4%BD%93&quot; style=&quot;font-size: 15px&quot; face=&quot;Times New Roman&quot;&gt;1&lt;/font&gt;" style="text;html=1;strokeColor=none;fillColor=none;align=center;verticalAlign=middle;whiteSpace=wrap;rounded=0;" vertex="1" parent="1">
                    <mxGeometry x="330" y="1120" width="30" height="30" as="geometry"/>
                </mxCell>
                <mxCell id="446" value="&lt;font data-font-src=&quot;https://fonts.googleapis.com/css?family=%E5%AE%8B%E4%BD%93&quot; style=&quot;font-size: 15px&quot; face=&quot;Times New Roman&quot;&gt;2&lt;/font&gt;" style="text;html=1;strokeColor=none;fillColor=none;align=center;verticalAlign=middle;whiteSpace=wrap;rounded=0;" vertex="1" parent="1">
                    <mxGeometry x="330" y="1150" width="30" height="30" as="geometry"/>
                </mxCell>
                <mxCell id="447" value="&lt;font data-font-src=&quot;https://fonts.googleapis.com/css?family=%E5%AE%8B%E4%BD%93&quot; style=&quot;font-size: 15px&quot; face=&quot;Times New Roman&quot;&gt;3&lt;/font&gt;" style="text;html=1;strokeColor=none;fillColor=none;align=center;verticalAlign=middle;whiteSpace=wrap;rounded=0;" vertex="1" parent="1">
                    <mxGeometry x="330" y="1180" width="30" height="30" as="geometry"/>
                </mxCell>
                <mxCell id="448" value="&lt;font data-font-src=&quot;https://fonts.googleapis.com/css?family=%E5%AE%8B%E4%BD%93&quot; style=&quot;font-size: 15px&quot; face=&quot;Times New Roman&quot;&gt;4&lt;/font&gt;" style="text;html=1;strokeColor=none;fillColor=none;align=center;verticalAlign=middle;whiteSpace=wrap;rounded=0;" vertex="1" parent="1">
                    <mxGeometry x="330" y="1210" width="30" height="30" as="geometry"/>
                </mxCell>
                <mxCell id="449" value="&lt;font data-font-src=&quot;https://fonts.googleapis.com/css?family=%E5%AE%8B%E4%BD%93&quot; style=&quot;font-size: 15px&quot; face=&quot;Times New Roman&quot;&gt;5&lt;/font&gt;" style="text;html=1;strokeColor=none;fillColor=none;align=center;verticalAlign=middle;whiteSpace=wrap;rounded=0;" vertex="1" parent="1">
                    <mxGeometry x="330" y="1240" width="30" height="30" as="geometry"/>
                </mxCell>
                <mxCell id="450" value="&lt;font data-font-src=&quot;https://fonts.googleapis.com/css?family=%E5%AE%8B%E4%BD%93&quot; style=&quot;font-size: 15px&quot; face=&quot;Times New Roman&quot;&gt;6&lt;/font&gt;" style="text;html=1;strokeColor=none;fillColor=none;align=center;verticalAlign=middle;whiteSpace=wrap;rounded=0;" vertex="1" parent="1">
                    <mxGeometry x="330" y="1270" width="30" height="30" as="geometry"/>
                </mxCell>
                <mxCell id="451" value="&lt;font data-font-src=&quot;https://fonts.googleapis.com/css?family=%E5%AE%8B%E4%BD%93&quot; style=&quot;font-size: 15px&quot; face=&quot;Times New Roman&quot;&gt;7&lt;/font&gt;" style="text;html=1;strokeColor=none;fillColor=none;align=center;verticalAlign=middle;whiteSpace=wrap;rounded=0;" vertex="1" parent="1">
                    <mxGeometry x="330" y="1300" width="30" height="30" as="geometry"/>
                </mxCell>
                <mxCell id="452" value="&lt;font data-font-src=&quot;https://fonts.googleapis.com/css?family=%E5%AE%8B%E4%BD%93&quot; style=&quot;font-size: 15px&quot; face=&quot;Times New Roman&quot;&gt;...&lt;/font&gt;" style="text;html=1;strokeColor=none;fillColor=none;align=center;verticalAlign=middle;whiteSpace=wrap;rounded=0;" vertex="1" parent="1">
                    <mxGeometry x="330" y="1330" width="30" height="30" as="geometry"/>
                </mxCell>
                <mxCell id="453" value="&lt;p class=&quot;MsoNormal&quot;&gt;&lt;font style=&quot;font-size: 22px&quot; face=&quot;宋体&quot; data-font-src=&quot;https://fonts.googleapis.com/css?family=%E5%AE%8B%E4%BD%93&quot;&gt;标注序号栈&lt;/font&gt;&lt;/p&gt;" style="text;html=1;strokeColor=none;fillColor=none;align=center;verticalAlign=middle;whiteSpace=wrap;rounded=0;" vertex="1" parent="1">
                    <mxGeometry x="140" y="1330" width="130" height="30" as="geometry"/>
                </mxCell>
                <mxCell id="454" value="&lt;p class=&quot;MsoNormal&quot; style=&quot;font-size: 22px&quot;&gt;&lt;font face=&quot;宋体&quot; style=&quot;font-size: 22px&quot;&gt;商品位置&lt;/font&gt;&lt;/p&gt;&lt;p class=&quot;MsoNormal&quot; style=&quot;font-size: 22px&quot;&gt;&lt;font face=&quot;宋体&quot; style=&quot;font-size: 22px&quot;&gt;寄存器数组&lt;/font&gt;&lt;/p&gt;" style="text;html=1;strokeColor=none;fillColor=none;align=center;verticalAlign=middle;whiteSpace=wrap;rounded=0;" vertex="1" parent="1">
                    <mxGeometry x="600" y="1280" width="130" height="80" as="geometry"/>
                </mxCell>
                <mxCell id="459" value="&lt;font style=&quot;font-size: 18px&quot;&gt;stack_pop&lt;/font&gt;" style="text;html=1;align=center;verticalAlign=middle;resizable=0;points=[];autosize=1;strokeColor=none;fillColor=none;fontSize=22;fontFamily=Times New Roman;" vertex="1" parent="1">
                    <mxGeometry x="110" y="360" width="90" height="30" as="geometry"/>
                </mxCell>
                <mxCell id="461" value="&lt;font style=&quot;font-size: 18px&quot;&gt;adjust&lt;/font&gt;" style="text;html=1;align=center;verticalAlign=middle;resizable=0;points=[];autosize=1;strokeColor=none;fillColor=none;fontSize=22;fontFamily=Times New Roman;" vertex="1" parent="1">
                    <mxGeometry x="260" y="450" width="60" height="30" as="geometry"/>
                </mxCell>
                <mxCell id="463" value="&lt;font style=&quot;font-size: 18px&quot;&gt;adjust&lt;/font&gt;" style="text;html=1;align=center;verticalAlign=middle;resizable=0;points=[];autosize=1;strokeColor=none;fillColor=none;fontSize=22;fontFamily=Times New Roman;" vertex="1" parent="1">
                    <mxGeometry x="260" y="1160" width="60" height="30" as="geometry"/>
                </mxCell>
                <mxCell id="464" value="" style="rounded=0;whiteSpace=wrap;html=1;strokeColor=#DAE8FC;fillColor=#DAE8FC;" vertex="1" parent="1">
                    <mxGeometry x="40" y="1670" width="600" height="120" as="geometry"/>
                </mxCell>
                <mxCell id="465" value="" style="rounded=0;whiteSpace=wrap;html=1;strokeColor=#DAE8FC;fillColor=#DAE8FC;" vertex="1" parent="1">
                    <mxGeometry x="280" y="1630" width="360" height="40" as="geometry"/>
                </mxCell>
                <mxCell id="466" value="" style="rounded=0;whiteSpace=wrap;html=1;strokeColor=#F8CECC;fillColor=#F8CECC;" vertex="1" parent="1">
                    <mxGeometry x="40" y="1590" width="200" height="40" as="geometry"/>
                </mxCell>
                <mxCell id="467" value="" style="rounded=0;whiteSpace=wrap;html=1;strokeColor=#F8CECC;fillColor=#f8cecc;" vertex="1" parent="1">
                    <mxGeometry x="40" y="1470" width="600" height="120" as="geometry"/>
                </mxCell>
                <mxCell id="468" value="" style="whiteSpace=wrap;html=1;aspect=fixed;fillColor=#d5e8d4;strokeColor=#82b366;" vertex="1" parent="1">
                    <mxGeometry x="280" y="1590" width="40" height="40" as="geometry"/>
                </mxCell>
                <mxCell id="469" value="" style="whiteSpace=wrap;html=1;aspect=fixed;" vertex="1" parent="1">
                    <mxGeometry x="320" y="1590" width="40" height="40" as="geometry"/>
                </mxCell>
                <mxCell id="470" value="" style="whiteSpace=wrap;html=1;aspect=fixed;" vertex="1" parent="1">
                    <mxGeometry x="360" y="1590" width="40" height="40" as="geometry"/>
                </mxCell>
                <mxCell id="471" value="" style="whiteSpace=wrap;html=1;aspect=fixed;" vertex="1" parent="1">
                    <mxGeometry x="400" y="1590" width="40" height="40" as="geometry"/>
                </mxCell>
                <mxCell id="472" value="" style="whiteSpace=wrap;html=1;aspect=fixed;" vertex="1" parent="1">
                    <mxGeometry x="440" y="1590" width="40" height="40" as="geometry"/>
                </mxCell>
                <mxCell id="473" value="" style="whiteSpace=wrap;html=1;aspect=fixed;" vertex="1" parent="1">
                    <mxGeometry x="480" y="1590" width="40" height="40" as="geometry"/>
                </mxCell>
                <mxCell id="474" value="" style="whiteSpace=wrap;html=1;aspect=fixed;" vertex="1" parent="1">
                    <mxGeometry x="520" y="1590" width="40" height="40" as="geometry"/>
                </mxCell>
                <mxCell id="475" value="" style="whiteSpace=wrap;html=1;aspect=fixed;" vertex="1" parent="1">
                    <mxGeometry x="560" y="1590" width="40" height="40" as="geometry"/>
                </mxCell>
                <mxCell id="476" value="" style="whiteSpace=wrap;html=1;aspect=fixed;" vertex="1" parent="1">
                    <mxGeometry x="600" y="1590" width="40" height="40" as="geometry"/>
                </mxCell>
                <mxCell id="477" value="" style="whiteSpace=wrap;html=1;aspect=fixed;" vertex="1" parent="1">
                    <mxGeometry x="120" y="1630" width="40" height="40" as="geometry"/>
                </mxCell>
                <mxCell id="478" value="" style="whiteSpace=wrap;html=1;aspect=fixed;" vertex="1" parent="1">
                    <mxGeometry x="160" y="1630" width="40" height="40" as="geometry"/>
                </mxCell>
                <mxCell id="479" value="" style="edgeStyle=none;html=1;" edge="1" parent="1" source="480" target="464">
                    <mxGeometry relative="1" as="geometry"/>
                </mxCell>
                <mxCell id="480" value="" style="whiteSpace=wrap;html=1;aspect=fixed;" vertex="1" parent="1">
                    <mxGeometry x="200" y="1630" width="40" height="40" as="geometry"/>
                </mxCell>
                <mxCell id="481" value="" style="whiteSpace=wrap;html=1;aspect=fixed;" vertex="1" parent="1">
                    <mxGeometry x="40" y="1630" width="40" height="40" as="geometry"/>
                </mxCell>
                <mxCell id="482" value="" style="whiteSpace=wrap;html=1;aspect=fixed;" vertex="1" parent="1">
                    <mxGeometry x="80" y="1630" width="40" height="40" as="geometry"/>
                </mxCell>
                <mxCell id="483" value="" style="whiteSpace=wrap;html=1;aspect=fixed;" vertex="1" parent="1">
                    <mxGeometry x="120" y="1630" width="40" height="40" as="geometry"/>
                </mxCell>
                <mxCell id="484" style="edgeStyle=none;html=1;entryX=0;entryY=0.5;entryDx=0;entryDy=0;fontFamily=Times New Roman;fontSize=22;rounded=0;" edge="1" parent="1" source="485" target="555">
                    <mxGeometry relative="1" as="geometry">
                        <Array as="points">
                            <mxPoint x="260" y="1885"/>
                        </Array>
                    </mxGeometry>
                </mxCell>
                <mxCell id="485" value="&lt;font face=&quot;Times New Roman&quot;&gt;now&lt;br&gt;2&lt;br&gt;&lt;/font&gt;" style="whiteSpace=wrap;html=1;aspect=fixed;" vertex="1" parent="1">
                    <mxGeometry x="240" y="1630" width="40" height="40" as="geometry"/>
                </mxCell>
                <mxCell id="489" value="" style="whiteSpace=wrap;html=1;aspect=fixed;fillColor=#d5e8d4;strokeColor=#82b366;" vertex="1" parent="1">
                    <mxGeometry x="320" y="1590" width="40" height="40" as="geometry"/>
                </mxCell>
                <mxCell id="490" style="edgeStyle=none;html=1;fontFamily=Times New Roman;fontSize=22;" edge="1" parent="1" source="492" target="485">
                    <mxGeometry relative="1" as="geometry"/>
                </mxCell>
                <mxCell id="491" style="edgeStyle=none;html=1;entryX=0;entryY=0.5;entryDx=0;entryDy=0;fontFamily=Times New Roman;fontSize=22;exitX=0.018;exitY=0.446;exitDx=0;exitDy=0;exitPerimeter=0;" edge="1" parent="1" source="468" target="465">
                    <mxGeometry relative="1" as="geometry">
                        <Array as="points">
                            <mxPoint x="300" y="1630"/>
                        </Array>
                    </mxGeometry>
                </mxCell>
                <mxCell id="492" value="&lt;font face=&quot;Times New Roman&quot;&gt;up&lt;br&gt;2&lt;/font&gt;" style="whiteSpace=wrap;html=1;aspect=fixed;fillColor=#82B366;strokeColor=#82B366;" vertex="1" parent="1">
                    <mxGeometry x="240" y="1590" width="40" height="40" as="geometry"/>
                </mxCell>
                <mxCell id="493" value="" style="whiteSpace=wrap;html=1;aspect=fixed;fillColor=#d5e8d4;strokeColor=#82b366;" vertex="1" parent="1">
                    <mxGeometry x="360" y="1590" width="40" height="40" as="geometry"/>
                </mxCell>
                <mxCell id="494" value="" style="whiteSpace=wrap;html=1;aspect=fixed;fillColor=#d5e8d4;strokeColor=#82b366;" vertex="1" parent="1">
                    <mxGeometry x="400" y="1590" width="40" height="40" as="geometry"/>
                </mxCell>
                <mxCell id="495" value="" style="whiteSpace=wrap;html=1;aspect=fixed;fillColor=#d5e8d4;strokeColor=#82b366;" vertex="1" parent="1">
                    <mxGeometry x="400" y="1590" width="40" height="40" as="geometry"/>
                </mxCell>
                <mxCell id="496" value="" style="whiteSpace=wrap;html=1;aspect=fixed;fillColor=#d5e8d4;strokeColor=#82b366;" vertex="1" parent="1">
                    <mxGeometry x="360" y="1590" width="40" height="40" as="geometry"/>
                </mxCell>
                <mxCell id="497" value="" style="whiteSpace=wrap;html=1;aspect=fixed;fillColor=#d5e8d4;strokeColor=#82b366;" vertex="1" parent="1">
                    <mxGeometry x="320" y="1590" width="40" height="40" as="geometry"/>
                </mxCell>
                <mxCell id="498" value="" style="whiteSpace=wrap;html=1;aspect=fixed;fillColor=#d5e8d4;strokeColor=#82b366;" vertex="1" parent="1">
                    <mxGeometry x="480" y="1590" width="40" height="40" as="geometry"/>
                </mxCell>
                <mxCell id="499" value="" style="whiteSpace=wrap;html=1;aspect=fixed;fillColor=#d5e8d4;strokeColor=#82b366;" vertex="1" parent="1">
                    <mxGeometry x="440" y="1590" width="40" height="40" as="geometry"/>
                </mxCell>
                <mxCell id="500" style="edgeStyle=none;html=1;entryX=0.5;entryY=0;entryDx=0;entryDy=0;fontFamily=宋体;fontSource=https%3A%2F%2Ffonts.googleapis.com%2Fcss%3Ffamily%3D%25E5%25AE%258B%25E4%25BD%2593;fontSize=15;" edge="1" parent="1" source="501" target="509">
                    <mxGeometry relative="1" as="geometry">
                        <Array as="points">
                            <mxPoint x="705" y="1610"/>
                        </Array>
                    </mxGeometry>
                </mxCell>
                <mxCell id="501" value="" style="whiteSpace=wrap;html=1;aspect=fixed;fillColor=#d5e8d4;strokeColor=#82b366;" vertex="1" parent="1">
                    <mxGeometry x="600" y="1590" width="40" height="40" as="geometry"/>
                </mxCell>
                <mxCell id="502" value="" style="whiteSpace=wrap;html=1;aspect=fixed;fillColor=#d5e8d4;strokeColor=#82b366;" vertex="1" parent="1">
                    <mxGeometry x="560" y="1590" width="40" height="40" as="geometry"/>
                </mxCell>
                <mxCell id="503" value="" style="whiteSpace=wrap;html=1;aspect=fixed;fillColor=#d5e8d4;strokeColor=#82b366;" vertex="1" parent="1">
                    <mxGeometry x="520" y="1590" width="40" height="40" as="geometry"/>
                </mxCell>
                <mxCell id="504" value="" style="whiteSpace=wrap;html=1;aspect=fixed;fillColor=#d5e8d4;strokeColor=#82b366;" vertex="1" parent="1">
                    <mxGeometry x="80" y="1630" width="40" height="40" as="geometry"/>
                </mxCell>
                <mxCell id="505" value="" style="whiteSpace=wrap;html=1;aspect=fixed;fillColor=#d5e8d4;strokeColor=#82b366;" vertex="1" parent="1">
                    <mxGeometry x="40" y="1630" width="40" height="40" as="geometry"/>
                </mxCell>
                <mxCell id="565" style="edgeStyle=none;rounded=0;html=1;entryX=0;entryY=0.5;entryDx=0;entryDy=0;fontFamily=Times New Roman;fontSize=18;" edge="1" parent="1" source="506" target="554">
                    <mxGeometry relative="1" as="geometry">
                        <Array as="points">
                            <mxPoint x="220" y="1855"/>
                        </Array>
                    </mxGeometry>
                </mxCell>
                <mxCell id="567" style="edgeStyle=none;rounded=0;html=1;entryX=0.5;entryY=0;entryDx=0;entryDy=0;fontFamily=Times New Roman;fontSize=18;" edge="1" parent="1" source="506" target="510">
                    <mxGeometry relative="1" as="geometry">
                        <Array as="points">
                            <mxPoint x="220" y="1820"/>
                            <mxPoint x="110" y="1820"/>
                        </Array>
                    </mxGeometry>
                </mxCell>
                <mxCell id="506" value="&lt;font face=&quot;Times New Roman&quot;&gt;left&lt;br&gt;1&lt;/font&gt;" style="whiteSpace=wrap;html=1;aspect=fixed;fillColor=#d5e8d4;strokeColor=#82b366;" vertex="1" parent="1">
                    <mxGeometry x="200" y="1630" width="40" height="40" as="geometry"/>
                </mxCell>
                <mxCell id="507" value="" style="whiteSpace=wrap;html=1;aspect=fixed;fillColor=#d5e8d4;strokeColor=#82b366;" vertex="1" parent="1">
                    <mxGeometry x="160" y="1630" width="40" height="40" as="geometry"/>
                </mxCell>
                <mxCell id="508" value="" style="whiteSpace=wrap;html=1;aspect=fixed;fillColor=#d5e8d4;strokeColor=#82b366;" vertex="1" parent="1">
                    <mxGeometry x="120" y="1630" width="40" height="40" as="geometry"/>
                </mxCell>
                <mxCell id="509" value="&lt;p class=&quot;MsoNormal&quot;&gt;&lt;font face=&quot;宋体&quot; data-font-src=&quot;https://fonts.googleapis.com/css?family=%E5%AE%8B%E4%BD%93&quot; style=&quot;font-size: 22px&quot;&gt;行寄存器数组&lt;/font&gt;&lt;br&gt;&lt;/p&gt;" style="text;html=1;strokeColor=none;fillColor=none;align=center;verticalAlign=middle;whiteSpace=wrap;rounded=0;" vertex="1" parent="1">
                    <mxGeometry x="650" y="1670" width="110" height="70" as="geometry"/>
                </mxCell>
                <mxCell id="510" value="&lt;font face=&quot;Times New Roman&quot;&gt;3&lt;/font&gt;" style="rounded=0;whiteSpace=wrap;html=1;fontFamily=宋体;fontSource=https%3A%2F%2Ffonts.googleapis.com%2Fcss%3Ffamily%3D%25E5%25AE%258B%25E4%25BD%2593;fontSize=15;" vertex="1" parent="1">
                    <mxGeometry x="80" y="1840" width="60" height="30" as="geometry"/>
                </mxCell>
                <mxCell id="511" value="&lt;font face=&quot;Times New Roman&quot;&gt;4&lt;/font&gt;" style="rounded=0;whiteSpace=wrap;html=1;fontFamily=宋体;fontSource=https%3A%2F%2Ffonts.googleapis.com%2Fcss%3Ffamily%3D%25E5%25AE%258B%25E4%25BD%2593;fontSize=15;" vertex="1" parent="1">
                    <mxGeometry x="80" y="1870" width="60" height="30" as="geometry"/>
                </mxCell>
                <mxCell id="512" value="&lt;span style=&quot;font-family: &amp;#34;times new roman&amp;#34;&quot;&gt;5&lt;/span&gt;" style="rounded=0;whiteSpace=wrap;html=1;fontFamily=宋体;fontSource=https%3A%2F%2Ffonts.googleapis.com%2Fcss%3Ffamily%3D%25E5%25AE%258B%25E4%25BD%2593;fontSize=15;" vertex="1" parent="1">
                    <mxGeometry x="80" y="1900" width="60" height="30" as="geometry"/>
                </mxCell>
                <mxCell id="513" value="&lt;font face=&quot;Times New Roman&quot;&gt;6&lt;/font&gt;" style="rounded=0;whiteSpace=wrap;html=1;fontFamily=宋体;fontSource=https%3A%2F%2Ffonts.googleapis.com%2Fcss%3Ffamily%3D%25E5%25AE%258B%25E4%25BD%2593;fontSize=15;" vertex="1" parent="1">
                    <mxGeometry x="80" y="1930" width="60" height="30" as="geometry"/>
                </mxCell>
                <mxCell id="514" value="&lt;font face=&quot;Times New Roman&quot;&gt;7&lt;/font&gt;" style="rounded=0;whiteSpace=wrap;html=1;fontFamily=宋体;fontSource=https%3A%2F%2Ffonts.googleapis.com%2Fcss%3Ffamily%3D%25E5%25AE%258B%25E4%25BD%2593;fontSize=15;" vertex="1" parent="1">
                    <mxGeometry x="80" y="1960" width="60" height="30" as="geometry"/>
                </mxCell>
                <mxCell id="515" value="&lt;font face=&quot;Times New Roman&quot;&gt;8&lt;/font&gt;" style="rounded=0;whiteSpace=wrap;html=1;fontFamily=宋体;fontSource=https%3A%2F%2Ffonts.googleapis.com%2Fcss%3Ffamily%3D%25E5%25AE%258B%25E4%25BD%2593;fontSize=15;" vertex="1" parent="1">
                    <mxGeometry x="80" y="1990" width="60" height="30" as="geometry"/>
                </mxCell>
                <mxCell id="516" value="&lt;font face=&quot;Times New Roman&quot;&gt;9&lt;/font&gt;" style="rounded=0;whiteSpace=wrap;html=1;fontFamily=宋体;fontSource=https%3A%2F%2Ffonts.googleapis.com%2Fcss%3Ffamily%3D%25E5%25AE%258B%25E4%25BD%2593;fontSize=15;" vertex="1" parent="1">
                    <mxGeometry x="80" y="2020" width="60" height="30" as="geometry"/>
                </mxCell>
                <mxCell id="517" value="&lt;font face=&quot;Times New Roman&quot;&gt;...&lt;/font&gt;" style="rounded=0;whiteSpace=wrap;html=1;fontFamily=宋体;fontSource=https%3A%2F%2Ffonts.googleapis.com%2Fcss%3Ffamily%3D%25E5%25AE%258B%25E4%25BD%2593;fontSize=15;" vertex="1" parent="1">
                    <mxGeometry x="80" y="2050" width="60" height="30" as="geometry"/>
                </mxCell>
                <mxCell id="518" value="" style="rounded=0;whiteSpace=wrap;html=1;fontFamily=宋体;fontSource=https%3A%2F%2Ffonts.googleapis.com%2Fcss%3Ffamily%3D%25E5%25AE%258B%25E4%25BD%2593;fontSize=15;fillColor=#e1d5e7;strokeColor=#9673a6;" vertex="1" parent="1">
                    <mxGeometry x="360" y="1840" width="60" height="30" as="geometry"/>
                </mxCell>
                <mxCell id="519" value="" style="rounded=0;whiteSpace=wrap;html=1;fontFamily=宋体;fontSource=https%3A%2F%2Ffonts.googleapis.com%2Fcss%3Ffamily%3D%25E5%25AE%258B%25E4%25BD%2593;fontSize=15;fillColor=#ffe6cc;strokeColor=#d79b00;" vertex="1" parent="1">
                    <mxGeometry x="360" y="1870" width="60" height="30" as="geometry"/>
                </mxCell>
                <mxCell id="520" value="" style="rounded=0;whiteSpace=wrap;html=1;fontFamily=宋体;fontSource=https%3A%2F%2Ffonts.googleapis.com%2Fcss%3Ffamily%3D%25E5%25AE%258B%25E4%25BD%2593;fontSize=15;" vertex="1" parent="1">
                    <mxGeometry x="360" y="1900" width="60" height="30" as="geometry"/>
                </mxCell>
                <mxCell id="521" value="" style="rounded=0;whiteSpace=wrap;html=1;fontFamily=宋体;fontSource=https%3A%2F%2Ffonts.googleapis.com%2Fcss%3Ffamily%3D%25E5%25AE%258B%25E4%25BD%2593;fontSize=15;" vertex="1" parent="1">
                    <mxGeometry x="360" y="1930" width="60" height="30" as="geometry"/>
                </mxCell>
                <mxCell id="522" value="" style="rounded=0;whiteSpace=wrap;html=1;fontFamily=宋体;fontSource=https%3A%2F%2Ffonts.googleapis.com%2Fcss%3Ffamily%3D%25E5%25AE%258B%25E4%25BD%2593;fontSize=15;" vertex="1" parent="1">
                    <mxGeometry x="360" y="1960" width="60" height="30" as="geometry"/>
                </mxCell>
                <mxCell id="523" value="" style="rounded=0;whiteSpace=wrap;html=1;fontFamily=宋体;fontSource=https%3A%2F%2Ffonts.googleapis.com%2Fcss%3Ffamily%3D%25E5%25AE%258B%25E4%25BD%2593;fontSize=15;" vertex="1" parent="1">
                    <mxGeometry x="360" y="1990" width="60" height="30" as="geometry"/>
                </mxCell>
                <mxCell id="524" value="" style="rounded=0;whiteSpace=wrap;html=1;fontFamily=宋体;fontSource=https%3A%2F%2Ffonts.googleapis.com%2Fcss%3Ffamily%3D%25E5%25AE%258B%25E4%25BD%2593;fontSize=15;" vertex="1" parent="1">
                    <mxGeometry x="360" y="2020" width="60" height="30" as="geometry"/>
                </mxCell>
                <mxCell id="525" value="" style="rounded=0;whiteSpace=wrap;html=1;fontFamily=宋体;fontSource=https%3A%2F%2Ffonts.googleapis.com%2Fcss%3Ffamily%3D%25E5%25AE%258B%25E4%25BD%2593;fontSize=15;" vertex="1" parent="1">
                    <mxGeometry x="360" y="2050" width="60" height="30" as="geometry"/>
                </mxCell>
                <mxCell id="526" value="" style="rounded=0;whiteSpace=wrap;html=1;fontFamily=宋体;fontSource=https%3A%2F%2Ffonts.googleapis.com%2Fcss%3Ffamily%3D%25E5%25AE%258B%25E4%25BD%2593;fontSize=15;fillColor=#e1d5e7;strokeColor=#9673a6;" vertex="1" parent="1">
                    <mxGeometry x="420" y="1840" width="60" height="30" as="geometry"/>
                </mxCell>
                <mxCell id="527" value="" style="rounded=0;whiteSpace=wrap;html=1;fontFamily=宋体;fontSource=https%3A%2F%2Ffonts.googleapis.com%2Fcss%3Ffamily%3D%25E5%25AE%258B%25E4%25BD%2593;fontSize=15;fillColor=#ffe6cc;strokeColor=#d79b00;" vertex="1" parent="1">
                    <mxGeometry x="420" y="1870" width="60" height="30" as="geometry"/>
                </mxCell>
                <mxCell id="528" value="" style="rounded=0;whiteSpace=wrap;html=1;fontFamily=宋体;fontSource=https%3A%2F%2Ffonts.googleapis.com%2Fcss%3Ffamily%3D%25E5%25AE%258B%25E4%25BD%2593;fontSize=15;" vertex="1" parent="1">
                    <mxGeometry x="420" y="1900" width="60" height="30" as="geometry"/>
                </mxCell>
                <mxCell id="529" value="" style="rounded=0;whiteSpace=wrap;html=1;fontFamily=宋体;fontSource=https%3A%2F%2Ffonts.googleapis.com%2Fcss%3Ffamily%3D%25E5%25AE%258B%25E4%25BD%2593;fontSize=15;" vertex="1" parent="1">
                    <mxGeometry x="420" y="1930" width="60" height="30" as="geometry"/>
                </mxCell>
                <mxCell id="530" value="" style="rounded=0;whiteSpace=wrap;html=1;fontFamily=宋体;fontSource=https%3A%2F%2Ffonts.googleapis.com%2Fcss%3Ffamily%3D%25E5%25AE%258B%25E4%25BD%2593;fontSize=15;" vertex="1" parent="1">
                    <mxGeometry x="420" y="1960" width="60" height="30" as="geometry"/>
                </mxCell>
                <mxCell id="531" value="" style="rounded=0;whiteSpace=wrap;html=1;fontFamily=宋体;fontSource=https%3A%2F%2Ffonts.googleapis.com%2Fcss%3Ffamily%3D%25E5%25AE%258B%25E4%25BD%2593;fontSize=15;" vertex="1" parent="1">
                    <mxGeometry x="420" y="1990" width="60" height="30" as="geometry"/>
                </mxCell>
                <mxCell id="532" value="" style="rounded=0;whiteSpace=wrap;html=1;fontFamily=宋体;fontSource=https%3A%2F%2Ffonts.googleapis.com%2Fcss%3Ffamily%3D%25E5%25AE%258B%25E4%25BD%2593;fontSize=15;" vertex="1" parent="1">
                    <mxGeometry x="420" y="2020" width="60" height="30" as="geometry"/>
                </mxCell>
                <mxCell id="533" value="" style="rounded=0;whiteSpace=wrap;html=1;fontFamily=宋体;fontSource=https%3A%2F%2Ffonts.googleapis.com%2Fcss%3Ffamily%3D%25E5%25AE%258B%25E4%25BD%2593;fontSize=15;" vertex="1" parent="1">
                    <mxGeometry x="420" y="2050" width="60" height="30" as="geometry"/>
                </mxCell>
                <mxCell id="534" value="" style="rounded=0;whiteSpace=wrap;html=1;fontFamily=宋体;fontSource=https%3A%2F%2Ffonts.googleapis.com%2Fcss%3Ffamily%3D%25E5%25AE%258B%25E4%25BD%2593;fontSize=15;fillColor=#e1d5e7;strokeColor=#9673a6;" vertex="1" parent="1">
                    <mxGeometry x="480" y="1840" width="60" height="30" as="geometry"/>
                </mxCell>
                <mxCell id="535" value="" style="rounded=0;whiteSpace=wrap;html=1;fontFamily=宋体;fontSource=https%3A%2F%2Ffonts.googleapis.com%2Fcss%3Ffamily%3D%25E5%25AE%258B%25E4%25BD%2593;fontSize=15;fillColor=#ffe6cc;strokeColor=#d79b00;" vertex="1" parent="1">
                    <mxGeometry x="480" y="1870" width="60" height="30" as="geometry"/>
                </mxCell>
                <mxCell id="536" value="" style="rounded=0;whiteSpace=wrap;html=1;fontFamily=宋体;fontSource=https%3A%2F%2Ffonts.googleapis.com%2Fcss%3Ffamily%3D%25E5%25AE%258B%25E4%25BD%2593;fontSize=15;" vertex="1" parent="1">
                    <mxGeometry x="480" y="1900" width="60" height="30" as="geometry"/>
                </mxCell>
                <mxCell id="537" value="" style="rounded=0;whiteSpace=wrap;html=1;fontFamily=宋体;fontSource=https%3A%2F%2Ffonts.googleapis.com%2Fcss%3Ffamily%3D%25E5%25AE%258B%25E4%25BD%2593;fontSize=15;" vertex="1" parent="1">
                    <mxGeometry x="480" y="1930" width="60" height="30" as="geometry"/>
                </mxCell>
                <mxCell id="538" value="" style="rounded=0;whiteSpace=wrap;html=1;fontFamily=宋体;fontSource=https%3A%2F%2Ffonts.googleapis.com%2Fcss%3Ffamily%3D%25E5%25AE%258B%25E4%25BD%2593;fontSize=15;" vertex="1" parent="1">
                    <mxGeometry x="480" y="1960" width="60" height="30" as="geometry"/>
                </mxCell>
                <mxCell id="539" value="" style="rounded=0;whiteSpace=wrap;html=1;fontFamily=宋体;fontSource=https%3A%2F%2Ffonts.googleapis.com%2Fcss%3Ffamily%3D%25E5%25AE%258B%25E4%25BD%2593;fontSize=15;" vertex="1" parent="1">
                    <mxGeometry x="480" y="1990" width="60" height="30" as="geometry"/>
                </mxCell>
                <mxCell id="540" value="" style="rounded=0;whiteSpace=wrap;html=1;fontFamily=宋体;fontSource=https%3A%2F%2Ffonts.googleapis.com%2Fcss%3Ffamily%3D%25E5%25AE%258B%25E4%25BD%2593;fontSize=15;" vertex="1" parent="1">
                    <mxGeometry x="480" y="2020" width="60" height="30" as="geometry"/>
                </mxCell>
                <mxCell id="541" value="" style="rounded=0;whiteSpace=wrap;html=1;fontFamily=宋体;fontSource=https%3A%2F%2Ffonts.googleapis.com%2Fcss%3Ffamily%3D%25E5%25AE%258B%25E4%25BD%2593;fontSize=15;" vertex="1" parent="1">
                    <mxGeometry x="480" y="2050" width="60" height="30" as="geometry"/>
                </mxCell>
                <mxCell id="542" value="" style="rounded=0;whiteSpace=wrap;html=1;fontFamily=宋体;fontSource=https%3A%2F%2Ffonts.googleapis.com%2Fcss%3Ffamily%3D%25E5%25AE%258B%25E4%25BD%2593;fontSize=15;fillColor=#e1d5e7;strokeColor=#9673a6;" vertex="1" parent="1">
                    <mxGeometry x="540" y="1840" width="60" height="30" as="geometry"/>
                </mxCell>
                <mxCell id="543" value="" style="rounded=0;whiteSpace=wrap;html=1;fontFamily=宋体;fontSource=https%3A%2F%2Ffonts.googleapis.com%2Fcss%3Ffamily%3D%25E5%25AE%258B%25E4%25BD%2593;fontSize=15;fillColor=#ffe6cc;strokeColor=#d79b00;" vertex="1" parent="1">
                    <mxGeometry x="540" y="1870" width="60" height="30" as="geometry"/>
                </mxCell>
                <mxCell id="544" value="" style="rounded=0;whiteSpace=wrap;html=1;fontFamily=宋体;fontSource=https%3A%2F%2Ffonts.googleapis.com%2Fcss%3Ffamily%3D%25E5%25AE%258B%25E4%25BD%2593;fontSize=15;" vertex="1" parent="1">
                    <mxGeometry x="540" y="1900" width="60" height="30" as="geometry"/>
                </mxCell>
                <mxCell id="545" value="" style="rounded=0;whiteSpace=wrap;html=1;fontFamily=宋体;fontSource=https%3A%2F%2Ffonts.googleapis.com%2Fcss%3Ffamily%3D%25E5%25AE%258B%25E4%25BD%2593;fontSize=15;" vertex="1" parent="1">
                    <mxGeometry x="540" y="1930" width="60" height="30" as="geometry"/>
                </mxCell>
                <mxCell id="546" value="" style="rounded=0;whiteSpace=wrap;html=1;fontFamily=宋体;fontSource=https%3A%2F%2Ffonts.googleapis.com%2Fcss%3Ffamily%3D%25E5%25AE%258B%25E4%25BD%2593;fontSize=15;" vertex="1" parent="1">
                    <mxGeometry x="540" y="1960" width="60" height="30" as="geometry"/>
                </mxCell>
                <mxCell id="547" value="" style="rounded=0;whiteSpace=wrap;html=1;fontFamily=宋体;fontSource=https%3A%2F%2Ffonts.googleapis.com%2Fcss%3Ffamily%3D%25E5%25AE%258B%25E4%25BD%2593;fontSize=15;" vertex="1" parent="1">
                    <mxGeometry x="540" y="1990" width="60" height="30" as="geometry"/>
                </mxCell>
                <mxCell id="548" value="" style="rounded=0;whiteSpace=wrap;html=1;fontFamily=宋体;fontSource=https%3A%2F%2Ffonts.googleapis.com%2Fcss%3Ffamily%3D%25E5%25AE%258B%25E4%25BD%2593;fontSize=15;" vertex="1" parent="1">
                    <mxGeometry x="540" y="2020" width="60" height="30" as="geometry"/>
                </mxCell>
                <mxCell id="549" value="" style="rounded=0;whiteSpace=wrap;html=1;fontFamily=宋体;fontSource=https%3A%2F%2Ffonts.googleapis.com%2Fcss%3Ffamily%3D%25E5%25AE%258B%25E4%25BD%2593;fontSize=15;" vertex="1" parent="1">
                    <mxGeometry x="540" y="2050" width="60" height="30" as="geometry"/>
                </mxCell>
                <mxCell id="550" value="&lt;font data-font-src=&quot;https://fonts.googleapis.com/css?family=%E5%AE%8B%E4%BD%93&quot; style=&quot;font-size: 15px&quot; face=&quot;Times New Roman&quot;&gt;X1&lt;/font&gt;" style="text;html=1;strokeColor=none;fillColor=none;align=center;verticalAlign=middle;whiteSpace=wrap;rounded=0;" vertex="1" parent="1">
                    <mxGeometry x="360" y="1810" width="60" height="30" as="geometry"/>
                </mxCell>
                <mxCell id="551" value="&lt;font data-font-src=&quot;https://fonts.googleapis.com/css?family=%E5%AE%8B%E4%BD%93&quot; style=&quot;font-size: 15px&quot; face=&quot;Times New Roman&quot;&gt;Y1&lt;/font&gt;" style="text;html=1;strokeColor=none;fillColor=none;align=center;verticalAlign=middle;whiteSpace=wrap;rounded=0;" vertex="1" parent="1">
                    <mxGeometry x="420" y="1810" width="60" height="30" as="geometry"/>
                </mxCell>
                <mxCell id="552" value="&lt;font data-font-src=&quot;https://fonts.googleapis.com/css?family=%E5%AE%8B%E4%BD%93&quot; style=&quot;font-size: 15px&quot; face=&quot;Times New Roman&quot;&gt;X2&lt;/font&gt;" style="text;html=1;strokeColor=none;fillColor=none;align=center;verticalAlign=middle;whiteSpace=wrap;rounded=0;" vertex="1" parent="1">
                    <mxGeometry x="480" y="1810" width="60" height="30" as="geometry"/>
                </mxCell>
                <mxCell id="553" value="&lt;font data-font-src=&quot;https://fonts.googleapis.com/css?family=%E5%AE%8B%E4%BD%93&quot; style=&quot;font-size: 15px&quot; face=&quot;Times New Roman&quot;&gt;Y2&lt;/font&gt;" style="text;html=1;strokeColor=none;fillColor=none;align=center;verticalAlign=middle;whiteSpace=wrap;rounded=0;" vertex="1" parent="1">
                    <mxGeometry x="540" y="1810" width="60" height="30" as="geometry"/>
                </mxCell>
                <mxCell id="554" value="&lt;font data-font-src=&quot;https://fonts.googleapis.com/css?family=%E5%AE%8B%E4%BD%93&quot; style=&quot;font-size: 15px&quot; face=&quot;Times New Roman&quot;&gt;1&lt;/font&gt;" style="text;html=1;strokeColor=none;fillColor=none;align=center;verticalAlign=middle;whiteSpace=wrap;rounded=0;" vertex="1" parent="1">
                    <mxGeometry x="330" y="1840" width="30" height="30" as="geometry"/>
                </mxCell>
                <mxCell id="555" value="&lt;font data-font-src=&quot;https://fonts.googleapis.com/css?family=%E5%AE%8B%E4%BD%93&quot; style=&quot;font-size: 15px&quot; face=&quot;Times New Roman&quot;&gt;2&lt;/font&gt;" style="text;html=1;strokeColor=none;fillColor=none;align=center;verticalAlign=middle;whiteSpace=wrap;rounded=0;" vertex="1" parent="1">
                    <mxGeometry x="330" y="1870" width="30" height="30" as="geometry"/>
                </mxCell>
                <mxCell id="556" value="&lt;font data-font-src=&quot;https://fonts.googleapis.com/css?family=%E5%AE%8B%E4%BD%93&quot; style=&quot;font-size: 15px&quot; face=&quot;Times New Roman&quot;&gt;3&lt;/font&gt;" style="text;html=1;strokeColor=none;fillColor=none;align=center;verticalAlign=middle;whiteSpace=wrap;rounded=0;" vertex="1" parent="1">
                    <mxGeometry x="330" y="1900" width="30" height="30" as="geometry"/>
                </mxCell>
                <mxCell id="557" value="&lt;font data-font-src=&quot;https://fonts.googleapis.com/css?family=%E5%AE%8B%E4%BD%93&quot; style=&quot;font-size: 15px&quot; face=&quot;Times New Roman&quot;&gt;4&lt;/font&gt;" style="text;html=1;strokeColor=none;fillColor=none;align=center;verticalAlign=middle;whiteSpace=wrap;rounded=0;" vertex="1" parent="1">
                    <mxGeometry x="330" y="1930" width="30" height="30" as="geometry"/>
                </mxCell>
                <mxCell id="558" value="&lt;font data-font-src=&quot;https://fonts.googleapis.com/css?family=%E5%AE%8B%E4%BD%93&quot; style=&quot;font-size: 15px&quot; face=&quot;Times New Roman&quot;&gt;5&lt;/font&gt;" style="text;html=1;strokeColor=none;fillColor=none;align=center;verticalAlign=middle;whiteSpace=wrap;rounded=0;" vertex="1" parent="1">
                    <mxGeometry x="330" y="1960" width="30" height="30" as="geometry"/>
                </mxCell>
                <mxCell id="559" value="&lt;font data-font-src=&quot;https://fonts.googleapis.com/css?family=%E5%AE%8B%E4%BD%93&quot; style=&quot;font-size: 15px&quot; face=&quot;Times New Roman&quot;&gt;6&lt;/font&gt;" style="text;html=1;strokeColor=none;fillColor=none;align=center;verticalAlign=middle;whiteSpace=wrap;rounded=0;" vertex="1" parent="1">
                    <mxGeometry x="330" y="1990" width="30" height="30" as="geometry"/>
                </mxCell>
                <mxCell id="560" value="&lt;font data-font-src=&quot;https://fonts.googleapis.com/css?family=%E5%AE%8B%E4%BD%93&quot; style=&quot;font-size: 15px&quot; face=&quot;Times New Roman&quot;&gt;7&lt;/font&gt;" style="text;html=1;strokeColor=none;fillColor=none;align=center;verticalAlign=middle;whiteSpace=wrap;rounded=0;" vertex="1" parent="1">
                    <mxGeometry x="330" y="2020" width="30" height="30" as="geometry"/>
                </mxCell>
                <mxCell id="561" value="&lt;font data-font-src=&quot;https://fonts.googleapis.com/css?family=%E5%AE%8B%E4%BD%93&quot; style=&quot;font-size: 15px&quot; face=&quot;Times New Roman&quot;&gt;...&lt;/font&gt;" style="text;html=1;strokeColor=none;fillColor=none;align=center;verticalAlign=middle;whiteSpace=wrap;rounded=0;" vertex="1" parent="1">
                    <mxGeometry x="330" y="2050" width="30" height="30" as="geometry"/>
                </mxCell>
                <mxCell id="562" value="&lt;p class=&quot;MsoNormal&quot;&gt;&lt;font style=&quot;font-size: 22px&quot; face=&quot;宋体&quot; data-font-src=&quot;https://fonts.googleapis.com/css?family=%E5%AE%8B%E4%BD%93&quot;&gt;标注序号栈&lt;/font&gt;&lt;/p&gt;" style="text;html=1;strokeColor=none;fillColor=none;align=center;verticalAlign=middle;whiteSpace=wrap;rounded=0;" vertex="1" parent="1">
                    <mxGeometry x="140" y="2050" width="130" height="30" as="geometry"/>
                </mxCell>
                <mxCell id="563" value="&lt;p class=&quot;MsoNormal&quot; style=&quot;font-size: 22px&quot;&gt;&lt;font face=&quot;宋体&quot; style=&quot;font-size: 22px&quot;&gt;商品位置&lt;/font&gt;&lt;/p&gt;&lt;p class=&quot;MsoNormal&quot; style=&quot;font-size: 22px&quot;&gt;&lt;font face=&quot;宋体&quot; style=&quot;font-size: 22px&quot;&gt;寄存器数组&lt;/font&gt;&lt;/p&gt;" style="text;html=1;strokeColor=none;fillColor=none;align=center;verticalAlign=middle;whiteSpace=wrap;rounded=0;" vertex="1" parent="1">
                    <mxGeometry x="600" y="2000" width="130" height="80" as="geometry"/>
                </mxCell>
                <mxCell id="564" value="&lt;font style=&quot;font-size: 18px&quot;&gt;adjust&lt;/font&gt;" style="text;html=1;align=center;verticalAlign=middle;resizable=0;points=[];autosize=1;strokeColor=none;fillColor=none;fontSize=22;fontFamily=Times New Roman;" vertex="1" parent="1">
                    <mxGeometry x="260" y="1880" width="60" height="30" as="geometry"/>
                </mxCell>
                <mxCell id="566" value="&lt;span style=&quot;font-size: 18px&quot;&gt;init&lt;/span&gt;" style="text;html=1;align=center;verticalAlign=middle;resizable=0;points=[];autosize=1;strokeColor=none;fillColor=none;fontSize=22;fontFamily=Times New Roman;" vertex="1" parent="1">
                    <mxGeometry x="270" y="1830" width="40" height="30" as="geometry"/>
                </mxCell>
                <mxCell id="568" value="&lt;font style=&quot;font-size: 18px&quot;&gt;stack_push&lt;/font&gt;" style="text;html=1;align=center;verticalAlign=middle;resizable=0;points=[];autosize=1;strokeColor=none;fillColor=none;fontSize=22;fontFamily=Times New Roman;" vertex="1" parent="1">
                    <mxGeometry x="105" y="1790" width="100" height="30" as="geometry"/>
                </mxCell>
                <mxCell id="569" value="" style="rounded=0;whiteSpace=wrap;html=1;strokeColor=#DAE8FC;fillColor=#DAE8FC;" vertex="1" parent="1">
                    <mxGeometry x="40" y="2391" width="600" height="120" as="geometry"/>
                </mxCell>
                <mxCell id="570" value="" style="rounded=0;whiteSpace=wrap;html=1;strokeColor=#DAE8FC;fillColor=#DAE8FC;" vertex="1" parent="1">
                    <mxGeometry x="280" y="2351" width="360" height="40" as="geometry"/>
                </mxCell>
                <mxCell id="571" value="" style="rounded=0;whiteSpace=wrap;html=1;strokeColor=#F8CECC;fillColor=#F8CECC;" vertex="1" parent="1">
                    <mxGeometry x="40" y="2311" width="200" height="40" as="geometry"/>
                </mxCell>
                <mxCell id="572" value="" style="rounded=0;whiteSpace=wrap;html=1;strokeColor=#F8CECC;fillColor=#f8cecc;" vertex="1" parent="1">
                    <mxGeometry x="40" y="2191" width="600" height="120" as="geometry"/>
                </mxCell>
                <mxCell id="573" value="" style="whiteSpace=wrap;html=1;aspect=fixed;fillColor=#d5e8d4;strokeColor=#82b366;" vertex="1" parent="1">
                    <mxGeometry x="280" y="2311" width="40" height="40" as="geometry"/>
                </mxCell>
                <mxCell id="574" value="" style="whiteSpace=wrap;html=1;aspect=fixed;" vertex="1" parent="1">
                    <mxGeometry x="320" y="2311" width="40" height="40" as="geometry"/>
                </mxCell>
                <mxCell id="575" value="" style="whiteSpace=wrap;html=1;aspect=fixed;" vertex="1" parent="1">
                    <mxGeometry x="360" y="2311" width="40" height="40" as="geometry"/>
                </mxCell>
                <mxCell id="576" value="" style="whiteSpace=wrap;html=1;aspect=fixed;" vertex="1" parent="1">
                    <mxGeometry x="400" y="2311" width="40" height="40" as="geometry"/>
                </mxCell>
                <mxCell id="577" value="" style="whiteSpace=wrap;html=1;aspect=fixed;" vertex="1" parent="1">
                    <mxGeometry x="440" y="2311" width="40" height="40" as="geometry"/>
                </mxCell>
                <mxCell id="578" value="" style="whiteSpace=wrap;html=1;aspect=fixed;" vertex="1" parent="1">
                    <mxGeometry x="480" y="2311" width="40" height="40" as="geometry"/>
                </mxCell>
                <mxCell id="579" value="" style="whiteSpace=wrap;html=1;aspect=fixed;" vertex="1" parent="1">
                    <mxGeometry x="520" y="2311" width="40" height="40" as="geometry"/>
                </mxCell>
                <mxCell id="580" value="" style="whiteSpace=wrap;html=1;aspect=fixed;" vertex="1" parent="1">
                    <mxGeometry x="560" y="2311" width="40" height="40" as="geometry"/>
                </mxCell>
                <mxCell id="581" value="" style="whiteSpace=wrap;html=1;aspect=fixed;" vertex="1" parent="1">
                    <mxGeometry x="600" y="2311" width="40" height="40" as="geometry"/>
                </mxCell>
                <mxCell id="582" value="" style="whiteSpace=wrap;html=1;aspect=fixed;" vertex="1" parent="1">
                    <mxGeometry x="120" y="2351" width="40" height="40" as="geometry"/>
                </mxCell>
                <mxCell id="583" value="" style="whiteSpace=wrap;html=1;aspect=fixed;" vertex="1" parent="1">
                    <mxGeometry x="160" y="2351" width="40" height="40" as="geometry"/>
                </mxCell>
                <mxCell id="585" value="" style="whiteSpace=wrap;html=1;aspect=fixed;" vertex="1" parent="1">
                    <mxGeometry x="200" y="2351" width="40" height="40" as="geometry"/>
                </mxCell>
                <mxCell id="586" value="" style="whiteSpace=wrap;html=1;aspect=fixed;" vertex="1" parent="1">
                    <mxGeometry x="40" y="2351" width="40" height="40" as="geometry"/>
                </mxCell>
                <mxCell id="587" value="" style="whiteSpace=wrap;html=1;aspect=fixed;" vertex="1" parent="1">
                    <mxGeometry x="80" y="2351" width="40" height="40" as="geometry"/>
                </mxCell>
                <mxCell id="588" value="" style="whiteSpace=wrap;html=1;aspect=fixed;" vertex="1" parent="1">
                    <mxGeometry x="120" y="2351" width="40" height="40" as="geometry"/>
                </mxCell>
                <mxCell id="589" style="edgeStyle=none;html=1;entryX=0;entryY=0.5;entryDx=0;entryDy=0;fontFamily=Times New Roman;fontSize=22;rounded=0;" edge="1" parent="1" source="590" target="660">
                    <mxGeometry relative="1" as="geometry">
                        <Array as="points">
                            <mxPoint x="260" y="2606"/>
                        </Array>
                    </mxGeometry>
                </mxCell>
                <mxCell id="590" value="&lt;font face=&quot;Times New Roman&quot;&gt;now&lt;br&gt;2&lt;br&gt;&lt;/font&gt;" style="whiteSpace=wrap;html=1;aspect=fixed;" vertex="1" parent="1">
                    <mxGeometry x="240" y="2351" width="40" height="40" as="geometry"/>
                </mxCell>
                <mxCell id="594" value="" style="whiteSpace=wrap;html=1;aspect=fixed;fillColor=#d5e8d4;strokeColor=#82b366;" vertex="1" parent="1">
                    <mxGeometry x="320" y="2311" width="40" height="40" as="geometry"/>
                </mxCell>
                <mxCell id="595" style="edgeStyle=none;html=1;fontFamily=Times New Roman;fontSize=22;" edge="1" parent="1" source="597" target="590">
                    <mxGeometry relative="1" as="geometry"/>
                </mxCell>
                <mxCell id="597" value="&lt;font face=&quot;Times New Roman&quot;&gt;up&lt;br&gt;0&lt;/font&gt;" style="whiteSpace=wrap;html=1;aspect=fixed;fillColor=#d5e8d4;strokeColor=#82b366;" vertex="1" parent="1">
                    <mxGeometry x="240" y="2311" width="40" height="40" as="geometry"/>
                </mxCell>
                <mxCell id="598" value="" style="whiteSpace=wrap;html=1;aspect=fixed;fillColor=#d5e8d4;strokeColor=#82b366;" vertex="1" parent="1">
                    <mxGeometry x="360" y="2311" width="40" height="40" as="geometry"/>
                </mxCell>
                <mxCell id="599" value="" style="whiteSpace=wrap;html=1;aspect=fixed;fillColor=#d5e8d4;strokeColor=#82b366;" vertex="1" parent="1">
                    <mxGeometry x="400" y="2311" width="40" height="40" as="geometry"/>
                </mxCell>
                <mxCell id="600" value="" style="whiteSpace=wrap;html=1;aspect=fixed;fillColor=#d5e8d4;strokeColor=#82b366;" vertex="1" parent="1">
                    <mxGeometry x="400" y="2311" width="40" height="40" as="geometry"/>
                </mxCell>
                <mxCell id="601" value="" style="whiteSpace=wrap;html=1;aspect=fixed;fillColor=#d5e8d4;strokeColor=#82b366;" vertex="1" parent="1">
                    <mxGeometry x="360" y="2311" width="40" height="40" as="geometry"/>
                </mxCell>
                <mxCell id="602" value="" style="whiteSpace=wrap;html=1;aspect=fixed;fillColor=#d5e8d4;strokeColor=#82b366;" vertex="1" parent="1">
                    <mxGeometry x="320" y="2311" width="40" height="40" as="geometry"/>
                </mxCell>
                <mxCell id="603" value="" style="whiteSpace=wrap;html=1;aspect=fixed;fillColor=#d5e8d4;strokeColor=#82b366;" vertex="1" parent="1">
                    <mxGeometry x="480" y="2311" width="40" height="40" as="geometry"/>
                </mxCell>
                <mxCell id="604" value="" style="whiteSpace=wrap;html=1;aspect=fixed;fillColor=#d5e8d4;strokeColor=#82b366;" vertex="1" parent="1">
                    <mxGeometry x="440" y="2311" width="40" height="40" as="geometry"/>
                </mxCell>
                <mxCell id="605" style="edgeStyle=none;html=1;entryX=0.5;entryY=0;entryDx=0;entryDy=0;fontFamily=宋体;fontSource=https%3A%2F%2Ffonts.googleapis.com%2Fcss%3Ffamily%3D%25E5%25AE%258B%25E4%25BD%2593;fontSize=15;" edge="1" parent="1" source="606" target="614">
                    <mxGeometry relative="1" as="geometry">
                        <Array as="points">
                            <mxPoint x="705" y="2331"/>
                        </Array>
                    </mxGeometry>
                </mxCell>
                <mxCell id="606" value="" style="whiteSpace=wrap;html=1;aspect=fixed;fillColor=#d5e8d4;strokeColor=#82b366;" vertex="1" parent="1">
                    <mxGeometry x="600" y="2311" width="40" height="40" as="geometry"/>
                </mxCell>
                <mxCell id="607" value="" style="whiteSpace=wrap;html=1;aspect=fixed;fillColor=#d5e8d4;strokeColor=#82b366;" vertex="1" parent="1">
                    <mxGeometry x="560" y="2311" width="40" height="40" as="geometry"/>
                </mxCell>
                <mxCell id="608" value="" style="whiteSpace=wrap;html=1;aspect=fixed;fillColor=#d5e8d4;strokeColor=#82b366;" vertex="1" parent="1">
                    <mxGeometry x="520" y="2311" width="40" height="40" as="geometry"/>
                </mxCell>
                <mxCell id="609" value="" style="whiteSpace=wrap;html=1;aspect=fixed;fillColor=#d5e8d4;strokeColor=#82b366;" vertex="1" parent="1">
                    <mxGeometry x="80" y="2351" width="40" height="40" as="geometry"/>
                </mxCell>
                <mxCell id="610" value="" style="whiteSpace=wrap;html=1;aspect=fixed;fillColor=#d5e8d4;strokeColor=#82b366;" vertex="1" parent="1">
                    <mxGeometry x="40" y="2351" width="40" height="40" as="geometry"/>
                </mxCell>
                <mxCell id="611" value="&lt;font face=&quot;Times New Roman&quot;&gt;left&lt;br&gt;2&lt;/font&gt;" style="whiteSpace=wrap;html=1;aspect=fixed;fillColor=#82B366;strokeColor=#82b366;" vertex="1" parent="1">
                    <mxGeometry x="200" y="2351" width="40" height="40" as="geometry"/>
                </mxCell>
                <mxCell id="612" value="" style="whiteSpace=wrap;html=1;aspect=fixed;fillColor=#d5e8d4;strokeColor=#82b366;" vertex="1" parent="1">
                    <mxGeometry x="160" y="2351" width="40" height="40" as="geometry"/>
                </mxCell>
                <mxCell id="613" value="" style="whiteSpace=wrap;html=1;aspect=fixed;fillColor=#d5e8d4;strokeColor=#82b366;" vertex="1" parent="1">
                    <mxGeometry x="120" y="2351" width="40" height="40" as="geometry"/>
                </mxCell>
                <mxCell id="614" value="&lt;p class=&quot;MsoNormal&quot;&gt;&lt;font face=&quot;宋体&quot; data-font-src=&quot;https://fonts.googleapis.com/css?family=%E5%AE%8B%E4%BD%93&quot; style=&quot;font-size: 22px&quot;&gt;行寄存器数组&lt;/font&gt;&lt;br&gt;&lt;/p&gt;" style="text;html=1;strokeColor=none;fillColor=none;align=center;verticalAlign=middle;whiteSpace=wrap;rounded=0;" vertex="1" parent="1">
                    <mxGeometry x="650" y="2391" width="110" height="70" as="geometry"/>
                </mxCell>
                <mxCell id="615" value="&lt;font face=&quot;Times New Roman&quot;&gt;3&lt;/font&gt;" style="rounded=0;whiteSpace=wrap;html=1;fontFamily=宋体;fontSource=https%3A%2F%2Ffonts.googleapis.com%2Fcss%3Ffamily%3D%25E5%25AE%258B%25E4%25BD%2593;fontSize=15;" vertex="1" parent="1">
                    <mxGeometry x="80" y="2561" width="60" height="30" as="geometry"/>
                </mxCell>
                <mxCell id="616" value="&lt;font face=&quot;Times New Roman&quot;&gt;4&lt;/font&gt;" style="rounded=0;whiteSpace=wrap;html=1;fontFamily=宋体;fontSource=https%3A%2F%2Ffonts.googleapis.com%2Fcss%3Ffamily%3D%25E5%25AE%258B%25E4%25BD%2593;fontSize=15;" vertex="1" parent="1">
                    <mxGeometry x="80" y="2591" width="60" height="30" as="geometry"/>
                </mxCell>
                <mxCell id="617" value="&lt;span style=&quot;font-family: &amp;#34;times new roman&amp;#34;&quot;&gt;5&lt;/span&gt;" style="rounded=0;whiteSpace=wrap;html=1;fontFamily=宋体;fontSource=https%3A%2F%2Ffonts.googleapis.com%2Fcss%3Ffamily%3D%25E5%25AE%258B%25E4%25BD%2593;fontSize=15;" vertex="1" parent="1">
                    <mxGeometry x="80" y="2621" width="60" height="30" as="geometry"/>
                </mxCell>
                <mxCell id="618" value="&lt;font face=&quot;Times New Roman&quot;&gt;6&lt;/font&gt;" style="rounded=0;whiteSpace=wrap;html=1;fontFamily=宋体;fontSource=https%3A%2F%2Ffonts.googleapis.com%2Fcss%3Ffamily%3D%25E5%25AE%258B%25E4%25BD%2593;fontSize=15;" vertex="1" parent="1">
                    <mxGeometry x="80" y="2651" width="60" height="30" as="geometry"/>
                </mxCell>
                <mxCell id="619" value="&lt;font face=&quot;Times New Roman&quot;&gt;7&lt;/font&gt;" style="rounded=0;whiteSpace=wrap;html=1;fontFamily=宋体;fontSource=https%3A%2F%2Ffonts.googleapis.com%2Fcss%3Ffamily%3D%25E5%25AE%258B%25E4%25BD%2593;fontSize=15;" vertex="1" parent="1">
                    <mxGeometry x="80" y="2681" width="60" height="30" as="geometry"/>
                </mxCell>
                <mxCell id="620" value="&lt;font face=&quot;Times New Roman&quot;&gt;8&lt;/font&gt;" style="rounded=0;whiteSpace=wrap;html=1;fontFamily=宋体;fontSource=https%3A%2F%2Ffonts.googleapis.com%2Fcss%3Ffamily%3D%25E5%25AE%258B%25E4%25BD%2593;fontSize=15;" vertex="1" parent="1">
                    <mxGeometry x="80" y="2711" width="60" height="30" as="geometry"/>
                </mxCell>
                <mxCell id="621" value="&lt;font face=&quot;Times New Roman&quot;&gt;9&lt;/font&gt;" style="rounded=0;whiteSpace=wrap;html=1;fontFamily=宋体;fontSource=https%3A%2F%2Ffonts.googleapis.com%2Fcss%3Ffamily%3D%25E5%25AE%258B%25E4%25BD%2593;fontSize=15;" vertex="1" parent="1">
                    <mxGeometry x="80" y="2741" width="60" height="30" as="geometry"/>
                </mxCell>
                <mxCell id="622" value="&lt;font face=&quot;Times New Roman&quot;&gt;...&lt;/font&gt;" style="rounded=0;whiteSpace=wrap;html=1;fontFamily=宋体;fontSource=https%3A%2F%2Ffonts.googleapis.com%2Fcss%3Ffamily%3D%25E5%25AE%258B%25E4%25BD%2593;fontSize=15;" vertex="1" parent="1">
                    <mxGeometry x="80" y="2771" width="60" height="30" as="geometry"/>
                </mxCell>
                <mxCell id="623" value="" style="rounded=0;whiteSpace=wrap;html=1;fontFamily=宋体;fontSource=https%3A%2F%2Ffonts.googleapis.com%2Fcss%3Ffamily%3D%25E5%25AE%258B%25E4%25BD%2593;fontSize=15;" vertex="1" parent="1">
                    <mxGeometry x="360" y="2561" width="60" height="30" as="geometry"/>
                </mxCell>
                <mxCell id="624" value="" style="rounded=0;whiteSpace=wrap;html=1;fontFamily=宋体;fontSource=https%3A%2F%2Ffonts.googleapis.com%2Fcss%3Ffamily%3D%25E5%25AE%258B%25E4%25BD%2593;fontSize=15;fillColor=#ffe6cc;strokeColor=#d79b00;" vertex="1" parent="1">
                    <mxGeometry x="360" y="2591" width="60" height="30" as="geometry"/>
                </mxCell>
                <mxCell id="625" value="" style="rounded=0;whiteSpace=wrap;html=1;fontFamily=宋体;fontSource=https%3A%2F%2Ffonts.googleapis.com%2Fcss%3Ffamily%3D%25E5%25AE%258B%25E4%25BD%2593;fontSize=15;" vertex="1" parent="1">
                    <mxGeometry x="360" y="2621" width="60" height="30" as="geometry"/>
                </mxCell>
                <mxCell id="626" value="" style="rounded=0;whiteSpace=wrap;html=1;fontFamily=宋体;fontSource=https%3A%2F%2Ffonts.googleapis.com%2Fcss%3Ffamily%3D%25E5%25AE%258B%25E4%25BD%2593;fontSize=15;" vertex="1" parent="1">
                    <mxGeometry x="360" y="2651" width="60" height="30" as="geometry"/>
                </mxCell>
                <mxCell id="627" value="" style="rounded=0;whiteSpace=wrap;html=1;fontFamily=宋体;fontSource=https%3A%2F%2Ffonts.googleapis.com%2Fcss%3Ffamily%3D%25E5%25AE%258B%25E4%25BD%2593;fontSize=15;" vertex="1" parent="1">
                    <mxGeometry x="360" y="2681" width="60" height="30" as="geometry"/>
                </mxCell>
                <mxCell id="628" value="" style="rounded=0;whiteSpace=wrap;html=1;fontFamily=宋体;fontSource=https%3A%2F%2Ffonts.googleapis.com%2Fcss%3Ffamily%3D%25E5%25AE%258B%25E4%25BD%2593;fontSize=15;" vertex="1" parent="1">
                    <mxGeometry x="360" y="2711" width="60" height="30" as="geometry"/>
                </mxCell>
                <mxCell id="629" value="" style="rounded=0;whiteSpace=wrap;html=1;fontFamily=宋体;fontSource=https%3A%2F%2Ffonts.googleapis.com%2Fcss%3Ffamily%3D%25E5%25AE%258B%25E4%25BD%2593;fontSize=15;" vertex="1" parent="1">
                    <mxGeometry x="360" y="2741" width="60" height="30" as="geometry"/>
                </mxCell>
                <mxCell id="630" value="" style="rounded=0;whiteSpace=wrap;html=1;fontFamily=宋体;fontSource=https%3A%2F%2Ffonts.googleapis.com%2Fcss%3Ffamily%3D%25E5%25AE%258B%25E4%25BD%2593;fontSize=15;" vertex="1" parent="1">
                    <mxGeometry x="360" y="2771" width="60" height="30" as="geometry"/>
                </mxCell>
                <mxCell id="631" value="" style="rounded=0;whiteSpace=wrap;html=1;fontFamily=宋体;fontSource=https%3A%2F%2Ffonts.googleapis.com%2Fcss%3Ffamily%3D%25E5%25AE%258B%25E4%25BD%2593;fontSize=15;" vertex="1" parent="1">
                    <mxGeometry x="420" y="2561" width="60" height="30" as="geometry"/>
                </mxCell>
                <mxCell id="632" value="" style="rounded=0;whiteSpace=wrap;html=1;fontFamily=宋体;fontSource=https%3A%2F%2Ffonts.googleapis.com%2Fcss%3Ffamily%3D%25E5%25AE%258B%25E4%25BD%2593;fontSize=15;fillColor=#ffe6cc;strokeColor=#d79b00;" vertex="1" parent="1">
                    <mxGeometry x="420" y="2591" width="60" height="30" as="geometry"/>
                </mxCell>
                <mxCell id="633" value="" style="rounded=0;whiteSpace=wrap;html=1;fontFamily=宋体;fontSource=https%3A%2F%2Ffonts.googleapis.com%2Fcss%3Ffamily%3D%25E5%25AE%258B%25E4%25BD%2593;fontSize=15;" vertex="1" parent="1">
                    <mxGeometry x="420" y="2621" width="60" height="30" as="geometry"/>
                </mxCell>
                <mxCell id="634" value="" style="rounded=0;whiteSpace=wrap;html=1;fontFamily=宋体;fontSource=https%3A%2F%2Ffonts.googleapis.com%2Fcss%3Ffamily%3D%25E5%25AE%258B%25E4%25BD%2593;fontSize=15;" vertex="1" parent="1">
                    <mxGeometry x="420" y="2651" width="60" height="30" as="geometry"/>
                </mxCell>
                <mxCell id="635" value="" style="rounded=0;whiteSpace=wrap;html=1;fontFamily=宋体;fontSource=https%3A%2F%2Ffonts.googleapis.com%2Fcss%3Ffamily%3D%25E5%25AE%258B%25E4%25BD%2593;fontSize=15;" vertex="1" parent="1">
                    <mxGeometry x="420" y="2681" width="60" height="30" as="geometry"/>
                </mxCell>
                <mxCell id="636" value="" style="rounded=0;whiteSpace=wrap;html=1;fontFamily=宋体;fontSource=https%3A%2F%2Ffonts.googleapis.com%2Fcss%3Ffamily%3D%25E5%25AE%258B%25E4%25BD%2593;fontSize=15;" vertex="1" parent="1">
                    <mxGeometry x="420" y="2711" width="60" height="30" as="geometry"/>
                </mxCell>
                <mxCell id="637" value="" style="rounded=0;whiteSpace=wrap;html=1;fontFamily=宋体;fontSource=https%3A%2F%2Ffonts.googleapis.com%2Fcss%3Ffamily%3D%25E5%25AE%258B%25E4%25BD%2593;fontSize=15;" vertex="1" parent="1">
                    <mxGeometry x="420" y="2741" width="60" height="30" as="geometry"/>
                </mxCell>
                <mxCell id="638" value="" style="rounded=0;whiteSpace=wrap;html=1;fontFamily=宋体;fontSource=https%3A%2F%2Ffonts.googleapis.com%2Fcss%3Ffamily%3D%25E5%25AE%258B%25E4%25BD%2593;fontSize=15;" vertex="1" parent="1">
                    <mxGeometry x="420" y="2771" width="60" height="30" as="geometry"/>
                </mxCell>
                <mxCell id="639" value="" style="rounded=0;whiteSpace=wrap;html=1;fontFamily=宋体;fontSource=https%3A%2F%2Ffonts.googleapis.com%2Fcss%3Ffamily%3D%25E5%25AE%258B%25E4%25BD%2593;fontSize=15;" vertex="1" parent="1">
                    <mxGeometry x="480" y="2561" width="60" height="30" as="geometry"/>
                </mxCell>
                <mxCell id="640" value="" style="rounded=0;whiteSpace=wrap;html=1;fontFamily=宋体;fontSource=https%3A%2F%2Ffonts.googleapis.com%2Fcss%3Ffamily%3D%25E5%25AE%258B%25E4%25BD%2593;fontSize=15;fillColor=#ffe6cc;strokeColor=#d79b00;" vertex="1" parent="1">
                    <mxGeometry x="480" y="2591" width="60" height="30" as="geometry"/>
                </mxCell>
                <mxCell id="641" value="" style="rounded=0;whiteSpace=wrap;html=1;fontFamily=宋体;fontSource=https%3A%2F%2Ffonts.googleapis.com%2Fcss%3Ffamily%3D%25E5%25AE%258B%25E4%25BD%2593;fontSize=15;" vertex="1" parent="1">
                    <mxGeometry x="480" y="2621" width="60" height="30" as="geometry"/>
                </mxCell>
                <mxCell id="642" value="" style="rounded=0;whiteSpace=wrap;html=1;fontFamily=宋体;fontSource=https%3A%2F%2Ffonts.googleapis.com%2Fcss%3Ffamily%3D%25E5%25AE%258B%25E4%25BD%2593;fontSize=15;" vertex="1" parent="1">
                    <mxGeometry x="480" y="2651" width="60" height="30" as="geometry"/>
                </mxCell>
                <mxCell id="643" value="" style="rounded=0;whiteSpace=wrap;html=1;fontFamily=宋体;fontSource=https%3A%2F%2Ffonts.googleapis.com%2Fcss%3Ffamily%3D%25E5%25AE%258B%25E4%25BD%2593;fontSize=15;" vertex="1" parent="1">
                    <mxGeometry x="480" y="2681" width="60" height="30" as="geometry"/>
                </mxCell>
                <mxCell id="644" value="" style="rounded=0;whiteSpace=wrap;html=1;fontFamily=宋体;fontSource=https%3A%2F%2Ffonts.googleapis.com%2Fcss%3Ffamily%3D%25E5%25AE%258B%25E4%25BD%2593;fontSize=15;" vertex="1" parent="1">
                    <mxGeometry x="480" y="2711" width="60" height="30" as="geometry"/>
                </mxCell>
                <mxCell id="645" value="" style="rounded=0;whiteSpace=wrap;html=1;fontFamily=宋体;fontSource=https%3A%2F%2Ffonts.googleapis.com%2Fcss%3Ffamily%3D%25E5%25AE%258B%25E4%25BD%2593;fontSize=15;" vertex="1" parent="1">
                    <mxGeometry x="480" y="2741" width="60" height="30" as="geometry"/>
                </mxCell>
                <mxCell id="646" value="" style="rounded=0;whiteSpace=wrap;html=1;fontFamily=宋体;fontSource=https%3A%2F%2Ffonts.googleapis.com%2Fcss%3Ffamily%3D%25E5%25AE%258B%25E4%25BD%2593;fontSize=15;" vertex="1" parent="1">
                    <mxGeometry x="480" y="2771" width="60" height="30" as="geometry"/>
                </mxCell>
                <mxCell id="647" value="" style="rounded=0;whiteSpace=wrap;html=1;fontFamily=宋体;fontSource=https%3A%2F%2Ffonts.googleapis.com%2Fcss%3Ffamily%3D%25E5%25AE%258B%25E4%25BD%2593;fontSize=15;" vertex="1" parent="1">
                    <mxGeometry x="540" y="2561" width="60" height="30" as="geometry"/>
                </mxCell>
                <mxCell id="648" value="" style="rounded=0;whiteSpace=wrap;html=1;fontFamily=宋体;fontSource=https%3A%2F%2Ffonts.googleapis.com%2Fcss%3Ffamily%3D%25E5%25AE%258B%25E4%25BD%2593;fontSize=15;fillColor=#ffe6cc;strokeColor=#d79b00;" vertex="1" parent="1">
                    <mxGeometry x="540" y="2591" width="60" height="30" as="geometry"/>
                </mxCell>
                <mxCell id="649" value="" style="rounded=0;whiteSpace=wrap;html=1;fontFamily=宋体;fontSource=https%3A%2F%2Ffonts.googleapis.com%2Fcss%3Ffamily%3D%25E5%25AE%258B%25E4%25BD%2593;fontSize=15;" vertex="1" parent="1">
                    <mxGeometry x="540" y="2621" width="60" height="30" as="geometry"/>
                </mxCell>
                <mxCell id="650" value="" style="rounded=0;whiteSpace=wrap;html=1;fontFamily=宋体;fontSource=https%3A%2F%2Ffonts.googleapis.com%2Fcss%3Ffamily%3D%25E5%25AE%258B%25E4%25BD%2593;fontSize=15;" vertex="1" parent="1">
                    <mxGeometry x="540" y="2651" width="60" height="30" as="geometry"/>
                </mxCell>
                <mxCell id="651" value="" style="rounded=0;whiteSpace=wrap;html=1;fontFamily=宋体;fontSource=https%3A%2F%2Ffonts.googleapis.com%2Fcss%3Ffamily%3D%25E5%25AE%258B%25E4%25BD%2593;fontSize=15;" vertex="1" parent="1">
                    <mxGeometry x="540" y="2681" width="60" height="30" as="geometry"/>
                </mxCell>
                <mxCell id="652" value="" style="rounded=0;whiteSpace=wrap;html=1;fontFamily=宋体;fontSource=https%3A%2F%2Ffonts.googleapis.com%2Fcss%3Ffamily%3D%25E5%25AE%258B%25E4%25BD%2593;fontSize=15;" vertex="1" parent="1">
                    <mxGeometry x="540" y="2711" width="60" height="30" as="geometry"/>
                </mxCell>
                <mxCell id="653" value="" style="rounded=0;whiteSpace=wrap;html=1;fontFamily=宋体;fontSource=https%3A%2F%2Ffonts.googleapis.com%2Fcss%3Ffamily%3D%25E5%25AE%258B%25E4%25BD%2593;fontSize=15;" vertex="1" parent="1">
                    <mxGeometry x="540" y="2741" width="60" height="30" as="geometry"/>
                </mxCell>
                <mxCell id="654" value="" style="rounded=0;whiteSpace=wrap;html=1;fontFamily=宋体;fontSource=https%3A%2F%2Ffonts.googleapis.com%2Fcss%3Ffamily%3D%25E5%25AE%258B%25E4%25BD%2593;fontSize=15;" vertex="1" parent="1">
                    <mxGeometry x="540" y="2771" width="60" height="30" as="geometry"/>
                </mxCell>
                <mxCell id="655" value="&lt;font data-font-src=&quot;https://fonts.googleapis.com/css?family=%E5%AE%8B%E4%BD%93&quot; style=&quot;font-size: 15px&quot; face=&quot;Times New Roman&quot;&gt;X1&lt;/font&gt;" style="text;html=1;strokeColor=none;fillColor=none;align=center;verticalAlign=middle;whiteSpace=wrap;rounded=0;" vertex="1" parent="1">
                    <mxGeometry x="360" y="2531" width="60" height="30" as="geometry"/>
                </mxCell>
                <mxCell id="656" value="&lt;font data-font-src=&quot;https://fonts.googleapis.com/css?family=%E5%AE%8B%E4%BD%93&quot; style=&quot;font-size: 15px&quot; face=&quot;Times New Roman&quot;&gt;Y1&lt;/font&gt;" style="text;html=1;strokeColor=none;fillColor=none;align=center;verticalAlign=middle;whiteSpace=wrap;rounded=0;" vertex="1" parent="1">
                    <mxGeometry x="420" y="2531" width="60" height="30" as="geometry"/>
                </mxCell>
                <mxCell id="657" value="&lt;font data-font-src=&quot;https://fonts.googleapis.com/css?family=%E5%AE%8B%E4%BD%93&quot; style=&quot;font-size: 15px&quot; face=&quot;Times New Roman&quot;&gt;X2&lt;/font&gt;" style="text;html=1;strokeColor=none;fillColor=none;align=center;verticalAlign=middle;whiteSpace=wrap;rounded=0;" vertex="1" parent="1">
                    <mxGeometry x="480" y="2531" width="60" height="30" as="geometry"/>
                </mxCell>
                <mxCell id="658" value="&lt;font data-font-src=&quot;https://fonts.googleapis.com/css?family=%E5%AE%8B%E4%BD%93&quot; style=&quot;font-size: 15px&quot; face=&quot;Times New Roman&quot;&gt;Y2&lt;/font&gt;" style="text;html=1;strokeColor=none;fillColor=none;align=center;verticalAlign=middle;whiteSpace=wrap;rounded=0;" vertex="1" parent="1">
                    <mxGeometry x="540" y="2531" width="60" height="30" as="geometry"/>
                </mxCell>
                <mxCell id="659" value="&lt;font data-font-src=&quot;https://fonts.googleapis.com/css?family=%E5%AE%8B%E4%BD%93&quot; style=&quot;font-size: 15px&quot; face=&quot;Times New Roman&quot;&gt;1&lt;/font&gt;" style="text;html=1;strokeColor=none;fillColor=none;align=center;verticalAlign=middle;whiteSpace=wrap;rounded=0;" vertex="1" parent="1">
                    <mxGeometry x="330" y="2561" width="30" height="30" as="geometry"/>
                </mxCell>
                <mxCell id="660" value="&lt;font data-font-src=&quot;https://fonts.googleapis.com/css?family=%E5%AE%8B%E4%BD%93&quot; style=&quot;font-size: 15px&quot; face=&quot;Times New Roman&quot;&gt;2&lt;/font&gt;" style="text;html=1;strokeColor=none;fillColor=none;align=center;verticalAlign=middle;whiteSpace=wrap;rounded=0;" vertex="1" parent="1">
                    <mxGeometry x="330" y="2591" width="30" height="30" as="geometry"/>
                </mxCell>
                <mxCell id="661" value="&lt;font data-font-src=&quot;https://fonts.googleapis.com/css?family=%E5%AE%8B%E4%BD%93&quot; style=&quot;font-size: 15px&quot; face=&quot;Times New Roman&quot;&gt;3&lt;/font&gt;" style="text;html=1;strokeColor=none;fillColor=none;align=center;verticalAlign=middle;whiteSpace=wrap;rounded=0;" vertex="1" parent="1">
                    <mxGeometry x="330" y="2621" width="30" height="30" as="geometry"/>
                </mxCell>
                <mxCell id="662" value="&lt;font data-font-src=&quot;https://fonts.googleapis.com/css?family=%E5%AE%8B%E4%BD%93&quot; style=&quot;font-size: 15px&quot; face=&quot;Times New Roman&quot;&gt;4&lt;/font&gt;" style="text;html=1;strokeColor=none;fillColor=none;align=center;verticalAlign=middle;whiteSpace=wrap;rounded=0;" vertex="1" parent="1">
                    <mxGeometry x="330" y="2651" width="30" height="30" as="geometry"/>
                </mxCell>
                <mxCell id="663" value="&lt;font data-font-src=&quot;https://fonts.googleapis.com/css?family=%E5%AE%8B%E4%BD%93&quot; style=&quot;font-size: 15px&quot; face=&quot;Times New Roman&quot;&gt;5&lt;/font&gt;" style="text;html=1;strokeColor=none;fillColor=none;align=center;verticalAlign=middle;whiteSpace=wrap;rounded=0;" vertex="1" parent="1">
                    <mxGeometry x="330" y="2681" width="30" height="30" as="geometry"/>
                </mxCell>
                <mxCell id="664" value="&lt;font data-font-src=&quot;https://fonts.googleapis.com/css?family=%E5%AE%8B%E4%BD%93&quot; style=&quot;font-size: 15px&quot; face=&quot;Times New Roman&quot;&gt;6&lt;/font&gt;" style="text;html=1;strokeColor=none;fillColor=none;align=center;verticalAlign=middle;whiteSpace=wrap;rounded=0;" vertex="1" parent="1">
                    <mxGeometry x="330" y="2711" width="30" height="30" as="geometry"/>
                </mxCell>
                <mxCell id="665" value="&lt;font data-font-src=&quot;https://fonts.googleapis.com/css?family=%E5%AE%8B%E4%BD%93&quot; style=&quot;font-size: 15px&quot; face=&quot;Times New Roman&quot;&gt;7&lt;/font&gt;" style="text;html=1;strokeColor=none;fillColor=none;align=center;verticalAlign=middle;whiteSpace=wrap;rounded=0;" vertex="1" parent="1">
                    <mxGeometry x="330" y="2741" width="30" height="30" as="geometry"/>
                </mxCell>
                <mxCell id="666" value="&lt;font data-font-src=&quot;https://fonts.googleapis.com/css?family=%E5%AE%8B%E4%BD%93&quot; style=&quot;font-size: 15px&quot; face=&quot;Times New Roman&quot;&gt;...&lt;/font&gt;" style="text;html=1;strokeColor=none;fillColor=none;align=center;verticalAlign=middle;whiteSpace=wrap;rounded=0;" vertex="1" parent="1">
                    <mxGeometry x="330" y="2771" width="30" height="30" as="geometry"/>
                </mxCell>
                <mxCell id="667" value="&lt;p class=&quot;MsoNormal&quot;&gt;&lt;font style=&quot;font-size: 22px&quot; face=&quot;宋体&quot; data-font-src=&quot;https://fonts.googleapis.com/css?family=%E5%AE%8B%E4%BD%93&quot;&gt;标注序号栈&lt;/font&gt;&lt;/p&gt;" style="text;html=1;strokeColor=none;fillColor=none;align=center;verticalAlign=middle;whiteSpace=wrap;rounded=0;" vertex="1" parent="1">
                    <mxGeometry x="140" y="2771" width="130" height="30" as="geometry"/>
                </mxCell>
                <mxCell id="668" value="&lt;p class=&quot;MsoNormal&quot; style=&quot;font-size: 22px&quot;&gt;&lt;font face=&quot;宋体&quot; style=&quot;font-size: 22px&quot;&gt;商品位置&lt;/font&gt;&lt;/p&gt;&lt;p class=&quot;MsoNormal&quot; style=&quot;font-size: 22px&quot;&gt;&lt;font face=&quot;宋体&quot; style=&quot;font-size: 22px&quot;&gt;寄存器数组&lt;/font&gt;&lt;/p&gt;" style="text;html=1;strokeColor=none;fillColor=none;align=center;verticalAlign=middle;whiteSpace=wrap;rounded=0;" vertex="1" parent="1">
                    <mxGeometry x="600" y="2721" width="130" height="80" as="geometry"/>
                </mxCell>
                <mxCell id="669" value="&lt;font style=&quot;font-size: 18px&quot;&gt;adjust&lt;/font&gt;" style="text;html=1;align=center;verticalAlign=middle;resizable=0;points=[];autosize=1;strokeColor=none;fillColor=none;fontSize=22;fontFamily=Times New Roman;" vertex="1" parent="1">
                    <mxGeometry x="260" y="2601" width="60" height="30" as="geometry"/>
                </mxCell>
                <mxCell id="671" style="edgeStyle=none;html=1;fontFamily=Times New Roman;fontSize=18;entryX=0.5;entryY=1;entryDx=0;entryDy=0;exitX=0.5;exitY=1;exitDx=0;exitDy=0;curved=1;" edge="1" parent="1" source="611" target="590">
                    <mxGeometry relative="1" as="geometry">
                        <Array as="points">
                            <mxPoint x="220" y="2410"/>
                            <mxPoint x="250" y="2410"/>
                        </Array>
                    </mxGeometry>
                </mxCell>
                <mxCell id="672" value="&lt;font face=&quot;宋体&quot; data-font-src=&quot;https://fonts.googleapis.com/css?family=%E5%AE%8B%E4%BD%93&quot; style=&quot;font-size: 22px&quot;&gt;二值化图像&lt;/font&gt;" style="text;html=1;strokeColor=none;fillColor=none;align=center;verticalAlign=middle;whiteSpace=wrap;rounded=0;" vertex="1" parent="1">
                    <mxGeometry x="40" y="720" width="120" height="30" as="geometry"/>
                </mxCell>
                <mxCell id="673" value="&lt;font face=&quot;宋体&quot; data-font-src=&quot;https://fonts.googleapis.com/css?family=%E5%AE%8B%E4%BD%93&quot; style=&quot;font-size: 22px&quot;&gt;已遍历区域&lt;/font&gt;" style="text;html=1;strokeColor=none;fillColor=none;align=center;verticalAlign=middle;whiteSpace=wrap;rounded=0;" vertex="1" parent="1">
                    <mxGeometry x="280" y="795" width="120" height="30" as="geometry"/>
                </mxCell>
                <mxCell id="674" value="&lt;font face=&quot;宋体&quot; data-font-src=&quot;https://fonts.googleapis.com/css?family=%E5%AE%8B%E4%BD%93&quot; style=&quot;font-size: 22px&quot;&gt;未遍历区域&lt;/font&gt;" style="text;html=1;strokeColor=none;fillColor=none;align=center;verticalAlign=middle;whiteSpace=wrap;rounded=0;" vertex="1" parent="1">
                    <mxGeometry x="277.5" y="980" width="125" height="30" as="geometry"/>
                </mxCell>
                <mxCell id="675" value="&lt;font face=&quot;宋体&quot; data-font-src=&quot;https://fonts.googleapis.com/css?family=%E5%AE%8B%E4%BD%93&quot; style=&quot;font-size: 22px&quot;&gt;二值化图像&lt;/font&gt;" style="text;html=1;strokeColor=none;fillColor=none;align=center;verticalAlign=middle;whiteSpace=wrap;rounded=0;" vertex="1" parent="1">
                    <mxGeometry x="40" y="1440" width="120" height="30" as="geometry"/>
                </mxCell>
                <mxCell id="676" value="&lt;font face=&quot;宋体&quot; data-font-src=&quot;https://fonts.googleapis.com/css?family=%E5%AE%8B%E4%BD%93&quot; style=&quot;font-size: 22px&quot;&gt;已遍历区域&lt;/font&gt;" style="text;html=1;strokeColor=none;fillColor=none;align=center;verticalAlign=middle;whiteSpace=wrap;rounded=0;" vertex="1" parent="1">
                    <mxGeometry x="280" y="1515" width="120" height="30" as="geometry"/>
                </mxCell>
                <mxCell id="677" value="&lt;font face=&quot;宋体&quot; data-font-src=&quot;https://fonts.googleapis.com/css?family=%E5%AE%8B%E4%BD%93&quot; style=&quot;font-size: 22px&quot;&gt;未遍历区域&lt;/font&gt;" style="text;html=1;strokeColor=none;fillColor=none;align=center;verticalAlign=middle;whiteSpace=wrap;rounded=0;" vertex="1" parent="1">
                    <mxGeometry x="277.5" y="1700" width="125" height="30" as="geometry"/>
                </mxCell>
                <mxCell id="678" value="&lt;font face=&quot;宋体&quot; data-font-src=&quot;https://fonts.googleapis.com/css?family=%E5%AE%8B%E4%BD%93&quot; style=&quot;font-size: 22px&quot;&gt;二值化图像&lt;/font&gt;" style="text;html=1;strokeColor=none;fillColor=none;align=center;verticalAlign=middle;whiteSpace=wrap;rounded=0;" vertex="1" parent="1">
                    <mxGeometry x="40" y="2160" width="120" height="30" as="geometry"/>
                </mxCell>
                <mxCell id="679" value="&lt;font face=&quot;宋体&quot; data-font-src=&quot;https://fonts.googleapis.com/css?family=%E5%AE%8B%E4%BD%93&quot; style=&quot;font-size: 22px&quot;&gt;已遍历区域&lt;/font&gt;" style="text;html=1;strokeColor=none;fillColor=none;align=center;verticalAlign=middle;whiteSpace=wrap;rounded=0;" vertex="1" parent="1">
                    <mxGeometry x="280" y="2235" width="120" height="30" as="geometry"/>
                </mxCell>
                <mxCell id="680" value="&lt;font face=&quot;宋体&quot; data-font-src=&quot;https://fonts.googleapis.com/css?family=%E5%AE%8B%E4%BD%93&quot; style=&quot;font-size: 22px&quot;&gt;未遍历区域&lt;/font&gt;" style="text;html=1;strokeColor=none;fillColor=none;align=center;verticalAlign=middle;whiteSpace=wrap;rounded=0;" vertex="1" parent="1">
                    <mxGeometry x="277.5" y="2420" width="125" height="30" as="geometry"/>
                </mxCell>
            </root>
        </mxGraphModel>
    </diagram>
</mxfile>